<svg width="16" height="16" viewBox="0 0 16 16" fill="none" xmlns="http://www.w3.org/2000/svg">
<g id="sparkles-soft" opacity="0.32">
<g id="vector">
<path d="M12.5911 1.56406C12.5763 1.43311 12.4656 1.33412 12.3338 1.33398C12.202 1.33385 12.091 1.43261 12.0759 1.56354C12.0056 2.17306 11.8246 2.59121 11.541 2.87483C11.2574 3.15845 10.8392 3.33946 10.2297 3.40977C10.0988 3.42487 10 3.53579 10.0002 3.66758C10.0003 3.79938 10.0993 3.9101 10.2302 3.92493C10.8295 3.9928 11.2571 4.17377 11.548 4.45935C11.8372 4.74337 12.0217 5.16092 12.0753 5.76433C12.0871 5.89821 12.1994 6.0008 12.3338 6.00065C12.4682 6.0005 12.5802 5.89766 12.5918 5.76375C12.6431 5.17054 12.8274 4.74357 13.1186 4.45241C13.4097 4.16126 13.8367 3.97696 14.4299 3.92561C14.5638 3.91402 14.6667 3.80202 14.6668 3.66761C14.667 3.5332 14.5644 3.42097 14.4305 3.40908C13.8271 3.35547 13.4095 3.17103 13.1255 2.88178C12.84 2.59095 12.659 2.16328 12.5911 1.56406Z" fill="#FCFCFC"/>
<path d="M7.99593 3.25895C7.95778 2.92221 7.67307 2.66766 7.33418 2.66732C6.99528 2.66697 6.71005 2.92093 6.67122 3.2576C6.49044 4.82494 6.02499 5.90018 5.29567 6.6295C4.56636 7.35881 3.49112 7.82427 1.92378 8.00504C1.58711 8.04387 1.33315 8.3291 1.3335 8.668C1.33384 9.0069 1.58839 9.29161 1.92513 9.32975C3.46597 9.50428 4.5657 9.96964 5.31355 10.704C6.05733 11.4343 6.53161 12.508 6.66944 14.0596C6.70003 14.4039 6.98863 14.6677 7.33425 14.6673C7.67986 14.6669 7.96787 14.4025 7.99768 14.0581C8.12972 12.5327 8.60362 11.4348 9.35231 10.6861C10.101 9.93744 11.1989 9.46354 12.7243 9.3315C13.0687 9.3017 13.3331 9.01368 13.3335 8.66807C13.3339 8.32245 13.0701 8.03385 12.7258 8.00327C11.1742 7.86544 10.1005 7.39116 9.37014 6.64737C8.63581 5.89952 8.17046 4.79979 7.99593 3.25895Z" fill="#FCFCFC"/>
</g>
</g>
</svg>
