<svg width="16" height="16" viewBox="0 0 16 16" fill="none" xmlns="http://www.w3.org/2000/svg">
<g id="wreath, crown, laurel-leafs" opacity="0.32">
<g id="vector">
<path fill-rule="evenodd" clip-rule="evenodd" d="M5.10123 1.59946C4.89049 1.31982 4.49932 1.25088 4.20567 1.44163C3.43003 1.94546 2.86567 2.58315 2.72231 3.39025C2.66363 3.72066 2.681 4.04844 2.76008 4.37096C2.60523 4.31813 2.44401 4.27266 2.27755 4.23391C1.93572 4.15433 1.59072 4.35342 1.48859 4.68921C1.22 5.57221 1.20101 6.42212 1.61361 7.13159C1.71548 7.30676 1.83793 7.4635 1.9782 7.6034C1.81237 7.63487 1.64451 7.67658 1.47535 7.72729C1.13737 7.82861 0.936866 8.17574 1.01798 8.51913C1.23023 9.41774 1.64167 10.1614 2.35387 10.5696C2.6007 10.7111 2.86447 10.8013 3.1408 10.8476C3.01964 10.9426 2.90045 11.0479 2.78375 11.1637C2.52691 11.4187 2.5204 11.832 2.76909 12.0949C3.34147 12.7001 3.98828 13.1158 4.71451 13.1928C5.28079 13.2528 5.81332 13.0987 6.30269 12.7944C6.2435 12.9783 6.08136 13.2034 5.67822 13.4036C5.34842 13.5673 5.21378 13.9673 5.37748 14.2971C5.54118 14.6269 5.94124 14.7615 6.27104 14.5978C7.08562 14.1935 7.56871 13.5621 7.65365 12.8258C7.81255 11.4486 6.57281 10.2905 5.26919 10.1704C5.2846 10.0834 5.28289 9.9921 5.26138 9.90105C5.09851 9.21152 4.81836 8.6132 4.37505 8.18768C4.41362 8.13207 4.44427 8.06967 4.46496 8.00166C4.70333 7.218 4.7451 6.46041 4.46306 5.80392C5.17571 5.31328 5.68894 4.70094 5.82468 3.93669C5.96813 3.12907 5.65717 2.33713 5.10123 1.59946Z" fill="#FCFCFC"/>
<path fill-rule="evenodd" clip-rule="evenodd" d="M11.7946 1.44163C11.5009 1.25088 11.1098 1.31982 10.899 1.59946C10.3431 2.33713 10.0321 3.12907 10.1756 3.93669C10.3113 4.70094 10.8245 5.31328 11.5372 5.80392C11.2552 6.46041 11.2969 7.218 11.5353 8.00166C11.556 8.06967 11.5866 8.13207 11.6252 8.18768C11.1819 8.6132 10.9017 9.21152 10.7389 9.90105C10.7174 9.9921 10.7157 10.0834 10.7311 10.1704C9.42744 10.2905 8.18771 11.4486 8.3466 12.8258C8.43155 13.5621 8.91463 14.1935 9.72922 14.5978C10.059 14.7615 10.4591 14.6269 10.6228 14.2971C10.7865 13.9673 10.6518 13.5673 10.322 13.4036C9.91889 13.2034 9.75676 12.9783 9.69757 12.7944C10.1869 13.0987 10.7195 13.2528 11.2857 13.1928C12.012 13.1158 12.6588 12.7001 13.2312 12.0949C13.4799 11.832 13.4733 11.4187 13.2165 11.1637C13.0998 11.0479 12.9806 10.9426 12.8595 10.8476C13.1358 10.8013 13.3996 10.7111 13.6464 10.5696C14.3586 10.1614 14.77 9.41774 14.9823 8.51913C15.0634 8.17574 14.8629 7.82861 14.5249 7.72729C14.3557 7.67658 14.1879 7.63487 14.0221 7.6034C14.1623 7.4635 14.2848 7.30676 14.3866 7.13159C14.7992 6.42212 14.7803 5.57221 14.5117 4.68921C14.4095 4.35342 14.0645 4.15433 13.7227 4.23391C13.5562 4.27266 13.395 4.31813 13.2402 4.37096C13.3193 4.04844 13.3366 3.72066 13.2779 3.39025C13.1346 2.58315 12.5702 1.94546 11.7946 1.44163Z" fill="#FCFCFC"/>
</g>
</g>
</svg>
