<svg width="16" height="16" viewBox="0 0 16 16" fill="none" xmlns="http://www.w3.org/2000/svg">
<g id="brain-1, ai, thinking, database, ki" opacity="0.32">
<g id="vector">
<path d="M7.3335 1.40079C7.1179 1.35698 6.8949 1.33398 6.66683 1.33398C5.26166 1.33398 4.06081 2.20294 3.57005 3.43213C2.28274 3.77001 1.3335 4.94078 1.3335 6.33398C1.3335 6.95048 1.51992 7.52407 1.8388 8.00065C1.51992 8.47723 1.3335 9.05083 1.3335 9.66732C1.3335 10.8085 1.97052 11.7996 2.90644 12.3066C3.43261 13.6864 4.76774 14.6673 6.3335 14.6673C6.67985 14.6673 7.01537 14.6191 7.3335 14.5291L7.3335 11.3359L7.3335 11.334C7.3335 10.5976 6.73654 10.0006 6.00016 10.0006C5.63197 10.0006 5.3335 9.70217 5.3335 9.33398C5.3335 8.96579 5.63197 8.66731 6.00016 8.66731C6.48588 8.66731 6.94127 8.79717 7.3335 9.02407L7.3335 4.66732L7.3335 4.66576L7.3335 1.40079Z" fill="#FCFCFC"/>
<path d="M8.66683 14.5291C8.98496 14.6191 9.32048 14.6673 9.66683 14.6673C11.2326 14.6673 12.5677 13.6864 13.0939 12.3066C14.0298 11.7996 14.6668 10.8085 14.6668 9.66732C14.6668 9.05083 14.4804 8.47723 14.1615 8.00065C14.4804 7.52407 14.6668 6.95047 14.6668 6.33398C14.6668 4.94078 13.7176 3.77001 12.4303 3.43213C11.9395 2.20295 10.7387 1.33398 9.3335 1.33398C9.10542 1.33398 8.88243 1.35698 8.66683 1.40079L8.66683 4.66951C8.66802 5.40488 9.26452 6.00065 10.0002 6.00065C10.3684 6.00065 10.6668 6.29913 10.6668 6.66732C10.6668 7.03551 10.3684 7.33398 10.0002 7.33398C9.51445 7.33398 9.05906 7.20412 8.66683 6.97723L8.66683 14.5291Z" fill="#FCFCFC"/>
</g>
</g>
</svg>
