<svg width="16" height="16" viewBox="0 0 16 16" fill="none" xmlns="http://www.w3.org/2000/svg">
<g id="dollar, currency, money, coin, USD" opacity="0.56">
<path id="vector" fill-rule="evenodd" clip-rule="evenodd" d="M1.3335 8.00065C1.3335 4.31875 4.31826 1.33398 8.00016 1.33398C11.6821 1.33398 14.6668 4.31875 14.6668 8.00065C14.6668 11.6826 11.6821 14.6673 8.00016 14.6673C4.31826 14.6673 1.3335 11.6826 1.3335 8.00065ZM8.00016 3.66732C8.36835 3.66732 8.66683 3.96579 8.66683 4.33398V4.74976C9.20286 4.88539 9.67583 5.1837 9.98409 5.61002C10.1998 5.90838 10.1329 6.32514 9.83449 6.54088C9.53613 6.75662 9.11937 6.68965 8.90363 6.39129C8.75879 6.19098 8.43578 6.00065 8.00016 6.00065H7.81498C7.21846 6.00065 7.00016 6.36393 7.00016 6.51917V6.57005C7.00016 6.70156 7.09958 6.9224 7.43519 7.05664L9.06032 7.70669C9.77161 7.99121 10.3335 8.62638 10.3335 9.43125C10.3335 10.4133 9.54883 11.0769 8.66683 11.2734V11.6673C8.66683 12.0355 8.36835 12.334 8.00016 12.334C7.63197 12.334 7.3335 12.0355 7.3335 11.6673V11.2515C6.79746 11.1159 6.3245 10.8176 6.01624 10.3913C5.80049 10.0929 5.86747 9.67616 6.16583 9.46042C6.46419 9.24468 6.88096 9.31166 7.0967 9.61002C7.24154 9.81033 7.56455 10.0007 8.00016 10.0007H8.12174C8.75339 10.0007 9.00016 9.61459 9.00016 9.43125C9.00016 9.29974 8.90074 9.07891 8.56513 8.94466L6.94 8.29461C6.22871 8.01009 5.66683 7.37492 5.66683 6.57005V6.51917C5.66683 5.54317 6.45974 4.89335 7.3335 4.71619V4.33398C7.3335 3.96579 7.63197 3.66732 8.00016 3.66732Z" fill="#FCFCFC"/>
</g>
</svg>
