<svg width="16" height="16" viewBox="0 0 16 16" fill="none" xmlns="http://www.w3.org/2000/svg">
<g id="folder-open" opacity="0.32">
<path id="vector" fill-rule="evenodd" clip-rule="evenodd" d="M3.3335 2C2.22893 2 1.3335 2.89543 1.3335 4V11.7062C1.3335 12.6048 2.06201 13.3333 2.96067 13.3333H12.0199C12.0232 13.3333 12.0269 13.3333 12.0302 13.3333C12.0425 13.3332 12.0549 13.3331 12.0672 13.3328C12.9226 13.3129 13.673 12.7499 13.9293 11.9299L15.0331 8.3977C15.2769 7.61761 14.7696 6.82605 14.0002 6.68786V6C14.0002 4.89543 13.1047 4 12.0002 4H8.35695L7.61735 2.8906C7.24642 2.3342 6.62196 2 5.95325 2H3.3335ZM12.6668 6.66667V6C12.6668 5.63181 12.3684 5.33333 12.0002 5.33333H8.35695C7.91115 5.33333 7.49484 5.11053 7.24755 4.7396L6.50795 3.6302C6.38431 3.44473 6.17615 3.33333 5.95325 3.33333H3.3335C2.96531 3.33333 2.66683 3.63181 2.66683 4V11.7062C2.66683 11.8684 2.79839 12 2.96067 12C3.08919 12 3.2028 11.9165 3.24114 11.7938L4.40479 8.07012C4.66571 7.23517 5.43898 6.66667 6.31375 6.66667H12.6668Z" fill="#FCFCFC"/>
</g>
</svg>
