<svg width="16" height="16" viewBox="0 0 16 16" fill="none" xmlns="http://www.w3.org/2000/svg">
<path d="M6.29961 1.098L4.982 3.87108C4.9031 4.03892 4.75069 4.154 4.57126 4.18094L1.62583 4.62609C0.0709686 4.86074 -0.551085 6.84624 0.574664 7.98522L2.70618 10.1414C2.83481 10.2722 2.89318 10.4597 2.86291 10.6421L2.35922 13.6913C2.09548 15.3013 3.71952 16.5273 5.11063 15.7672L7.7453 14.3302C7.82364 14.2874 7.91081 14.265 7.99931 14.265C8.08781 14.265 8.17498 14.2874 8.25332 14.3302L10.8875 15.7695C12.2791 16.529 13.9053 15.3019 13.6394 13.693L13.1357 10.6449C13.1049 10.4602 13.1633 10.2744 13.2924 10.143L15.4256 7.98466C16.5508 6.84624 15.9293 4.86074 14.3744 4.62609L11.4279 4.18094C11.3403 4.16751 11.2572 4.13219 11.1856 4.07802C11.1141 4.02385 11.0563 3.95245 11.0172 3.86995L9.70063 1.098C9.00346 -0.366001 6.99678 -0.366001 6.29961 1.098ZM8.48895 1.71998L9.80656 4.49193C9.94264 4.778 10.1435 5.02551 10.3919 5.21323C10.6403 5.40096 10.9289 5.52328 11.2328 5.56972L14.1798 6.01488C14.2805 6.02997 14.375 6.074 14.4528 6.142C14.5306 6.20999 14.5885 6.29924 14.62 6.39964C14.6515 6.50004 14.6553 6.60759 14.631 6.71012C14.6067 6.81265 14.5553 6.90608 14.4825 6.97984L12.3494 9.13823C12.1289 9.3612 11.9641 9.63657 11.869 9.94055C11.774 10.2445 11.7517 10.568 11.804 10.8829L12.3077 13.931C12.3247 14.0351 12.3134 14.1421 12.275 14.2398C12.2366 14.3376 12.1726 14.4222 12.0903 14.4842C12.008 14.5462 11.9107 14.5831 11.8093 14.5907C11.7079 14.5983 11.6065 14.5763 11.5165 14.5272L8.88186 13.0873C8.60974 12.9388 8.30696 12.8613 7.99958 12.8613C7.6922 12.8613 7.38942 12.9388 7.1173 13.0873L4.48209 14.5255C4.39195 14.5745 4.29041 14.5964 4.18894 14.5887C4.08746 14.5809 3.99009 14.5439 3.90781 14.4817C3.82553 14.4195 3.76162 14.3347 3.72329 14.2368C3.68496 14.1389 3.67373 14.0318 3.69088 13.9277L4.19457 10.8807C4.24661 10.5659 4.22417 10.2427 4.12917 9.93896C4.03417 9.63521 3.86946 9.36001 3.64926 9.13711L1.51774 6.97928C1.44483 6.90554 1.39326 6.81207 1.36888 6.70946C1.34449 6.60684 1.34826 6.49918 1.37977 6.39868C1.41127 6.29818 1.46924 6.20885 1.54712 6.14082C1.625 6.07278 1.71966 6.02877 1.82039 6.01375L4.7669 5.56916C5.0716 5.52334 5.36092 5.40096 5.60975 5.21264C5.85858 5.02433 6.0594 4.77578 6.19476 4.48856L7.51129 1.71942C7.5562 1.62444 7.62586 1.54444 7.71234 1.48852C7.79883 1.43259 7.89868 1.40298 8.00056 1.40304C8.10244 1.40309 8.20226 1.43282 8.28868 1.48885C8.37511 1.54487 8.44414 1.62495 8.48895 1.71998Z" fill="white" fill-opacity="0.56"/>
</svg>
