<svg width="16" height="16" viewBox="0 0 16 16" fill="none" xmlns="http://www.w3.org/2000/svg">
<g id="arrows-repeat-circle, repost" opacity="0.32">
<path id="vector" fill-rule="evenodd" clip-rule="evenodd" d="M6.86209 0.861278C7.12244 0.600928 7.54455 0.600928 7.8049 0.861278L9.8049 2.86128C10.0653 3.12163 10.0653 3.54374 9.8049 3.80409L7.8049 5.80409C7.54455 6.06444 7.12244 6.06444 6.86209 5.80409C6.60174 5.54374 6.60174 5.12163 6.86209 4.86128L7.72402 3.99935H6.66683C4.45769 3.99935 2.66683 5.79021 2.66683 7.99935C2.66683 9.08947 3.10203 10.0766 3.80966 10.7987C4.06735 11.0617 4.06307 11.4838 3.8001 11.7415C3.53712 11.9992 3.11503 11.9949 2.85734 11.7319C1.91538 10.7707 1.3335 9.4523 1.3335 7.99935C1.3335 5.05383 3.72131 2.66602 6.66683 2.66602H7.72402L6.86209 1.80409C6.60174 1.54374 6.60174 1.12163 6.86209 0.861278ZM12.2002 4.2572C12.4632 3.9995 12.8853 4.00378 13.143 4.26676C14.0849 5.22801 14.6668 6.54639 14.6668 7.99935C14.6668 10.9449 12.279 13.3327 9.3335 13.3327H8.2763L9.13823 14.1946C9.39858 14.455 9.39858 14.8771 9.13823 15.1374C8.87788 15.3978 8.45577 15.3978 8.19543 15.1374L6.19543 13.1374C5.93508 12.8771 5.93508 12.455 6.19543 12.1946L8.19543 10.1946C8.45577 9.93426 8.87788 9.93426 9.13823 10.1946C9.39858 10.455 9.39858 10.8771 9.13823 11.1374L8.27631 11.9993H9.3335C11.5426 11.9993 13.3335 10.2085 13.3335 7.99935C13.3335 6.90923 12.8983 5.92209 12.1907 5.19996C11.933 4.93698 11.9373 4.51489 12.2002 4.2572Z" fill="#FCFCFC"/>
</g>
</svg>
