<svg width="16" height="16" viewBox="0 0 16 16" fill="none" xmlns="http://www.w3.org/2000/svg">
<g clip-path="url(#clip0_14265_78288)">
<path d="M0.859531 8.96037C0.615626 8.96037 0.406187 8.86971 0.231212 8.68837C0.0562374 8.50704 -0.03125 8.29371 -0.03125 8.04838V6.83237C-0.03125 6.58704 0.0562374 6.37637 0.231212 6.20037C0.406187 6.02437 0.615626 5.93637 0.859531 5.93637H12.5351C12.3761 5.97904 12.2223 6.03504 12.0738 6.10437C11.9254 6.17371 11.7928 6.28304 11.6762 6.43237C11.3368 6.81637 10.9975 7.22971 10.6581 7.67237C10.3188 8.11504 9.99533 8.54437 9.6878 8.96037H0.859531ZM2.84788 4.91238C2.60398 4.91238 2.39454 4.82171 2.21956 4.64037C2.04459 4.45904 1.9571 4.24571 1.9571 4.00038V2.88038C1.9571 2.63504 2.04459 2.42437 2.21956 2.24837C2.39454 2.07237 2.60398 1.98437 2.84788 1.98438H14.953C15.1969 1.98438 15.4089 2.07237 15.5892 2.24837C15.7695 2.42437 15.8596 2.63504 15.8596 2.88038V4.00038C15.8596 4.24571 15.7695 4.45904 15.5892 4.64037C15.4089 4.82171 15.1969 4.91238 14.953 4.91238H2.84788ZM10.8808 11.9364V12.0644C10.8808 12.1284 10.8835 12.2324 10.8888 12.3764C10.8941 12.5204 10.8967 12.731 10.8967 13.0084H0.859531C0.615626 13.0084 0.406187 12.9204 0.231212 12.7444C0.0562374 12.5684 -0.03125 12.3524 -0.03125 12.0964V10.8964C-0.03125 10.651 0.0562374 10.4404 0.231212 10.2644C0.406187 10.0884 0.615626 10.0004 0.859531 10.0004H8.89246C8.86065 10.0217 8.83149 10.051 8.80497 10.0884C8.77846 10.1257 8.7546 10.155 8.73339 10.1764C8.62735 10.3257 8.56372 10.5017 8.54251 10.7044C8.5213 10.907 8.54251 11.1017 8.60614 11.2884C8.66977 11.475 8.77316 11.6324 8.91632 11.7604C9.05948 11.8884 9.23711 11.9524 9.4492 11.9524H10.1968L10.8808 11.9364ZM15.621 10.1444L15.8596 10.5444C15.9233 10.651 15.9551 10.7364 15.9551 10.8004C15.9551 10.8644 15.9153 10.9097 15.8358 10.9364C15.7562 10.963 15.6263 10.9764 15.4461 10.9764H14.5871C14.3538 10.9764 14.1788 11.035 14.0622 11.1524C13.9455 11.2697 13.8872 11.4244 13.8872 11.6164V13.1684C13.8872 13.3497 13.8077 13.531 13.6486 13.7124C13.4895 13.8937 13.2986 13.9844 13.076 13.9844H12.4556C12.2965 13.9844 12.156 13.923 12.0341 13.8004C11.9121 13.6777 11.8511 13.4617 11.8511 13.1524C11.8511 13.0137 11.8538 12.9257 11.8591 12.8884C11.8644 12.851 11.867 12.803 11.867 12.7444C11.867 12.6857 11.8697 12.587 11.875 12.4484C11.8803 12.3097 11.8829 12.0697 11.8829 11.7284C11.8829 11.4617 11.8379 11.2697 11.7477 11.1524C11.6576 11.035 11.4959 10.9764 11.2626 10.9764H10.4036C10.1597 10.9764 10.0059 10.9257 9.94231 10.8244C9.87868 10.723 9.93171 10.5657 10.1014 10.3524C10.2604 10.139 10.4381 9.89104 10.6343 9.60837C10.8304 9.32571 11.0319 9.03237 11.2387 8.72837C11.4455 8.42437 11.647 8.12838 11.8432 7.84037C12.0394 7.55237 12.2276 7.29638 12.4079 7.07238C12.4821 6.98704 12.5775 6.92038 12.6942 6.87238C12.8108 6.82438 12.9328 6.79771 13.06 6.79237C13.1873 6.78704 13.3039 6.80037 13.41 6.83237C13.516 6.86437 13.5956 6.91771 13.6486 6.99238C13.7758 7.21638 13.9217 7.46438 14.086 7.73637C14.2504 8.00837 14.4227 8.28304 14.603 8.56038C14.7833 8.83771 14.9609 9.11237 15.1359 9.38437C15.3109 9.65637 15.4726 9.90971 15.621 10.1444Z" fill="white" fill-opacity="0.56"/>
</g>
<defs>
<clipPath id="clip0_14265_78288">
<rect width="16" height="16" fill="white"/>
</clipPath>
</defs>
</svg>
