<svg width="16" height="16" viewBox="0 0 16 16" fill="none" xmlns="http://www.w3.org/2000/svg">
<g id="wallet-4" opacity="0.56">
<path id="vector" fill-rule="evenodd" clip-rule="evenodd" d="M1.33301 4.33268C1.33301 3.41305 2.0774 2.66602 2.99871 2.66602H11.333C12.4376 2.66602 13.333 3.56145 13.333 4.66602V4.77982C14.1098 5.05438 14.6663 5.7952 14.6663 6.66602V11.3327C14.6663 12.4373 13.7709 13.3327 12.6663 13.3327H3.33301C2.22844 13.3327 1.33301 12.4373 1.33301 11.3327V4.33268ZM2.66634 4.33268C2.66634 4.51678 2.81558 4.66602 2.99967 4.66602H11.9997C11.9997 4.29783 11.7012 3.99935 11.333 3.99935H2.99871C2.81545 3.99935 2.66634 4.14775 2.66634 4.33268ZM9.99967 8.99935C9.99967 8.44706 10.4474 7.99935 10.9997 7.99935C11.552 7.99935 11.9997 8.44706 11.9997 8.99935C11.9997 9.55163 11.552 9.99935 10.9997 9.99935C10.4474 9.99935 9.99967 9.55163 9.99967 8.99935Z" fill="#FCFCFC"/>
</g>
</svg>
