<svg width="17" height="16" viewBox="0 0 17 16" fill="none" xmlns="http://www.w3.org/2000/svg">
<path fill-rule="evenodd" clip-rule="evenodd" d="M5.83333 1.33398C6.20152 1.33398 6.5 1.63246 6.5 2.00065V2.66732H10.5V2.00065C10.5 1.63246 10.7985 1.33398 11.1667 1.33398C11.5349 1.33398 11.8333 1.63246 11.8333 2.00065V2.66732H12.5C13.6046 2.66732 14.5 3.56275 14.5 4.66732V12.0007C14.5 13.1052 13.6046 14.0007 12.5 14.0007H4.5C3.39543 14.0007 2.5 13.1052 2.5 12.0007V4.66732C2.5 3.56275 3.39543 2.66732 4.5 2.66732H5.16667V2.00065C5.16667 1.63246 5.46514 1.33398 5.83333 1.33398ZM5.16667 6.00065C5.16667 5.63246 5.46514 5.33398 5.83333 5.33398H11.1667C11.5349 5.33398 11.8333 5.63246 11.8333 6.00065C11.8333 6.36884 11.5349 6.66732 11.1667 6.66732H5.83333C5.46514 6.66732 5.16667 6.36884 5.16667 6.00065Z" fill="#FCFCFC"/>
</svg>
