<svg width="32" height="32" fill="none" xmlns="http://www.w3.org/2000/svg" class="h-8 w-8 dark:hidden" viewBox="0 0 32 32"><rect width="32" height="32" rx="16" fill="#1C2024"/><path d="m9.743 13.214.691-.842.021.155c.017.124.037.247.06.372.448 2.336 2.045 4.285 4.716 5.793 2.322 1.317 3.674 2.83 4.063 4.49.163.692.192 1.373.122 1.969l-.005.037-.033.016a7.912 7.912 0 0 1-3.471.796C11.54 26 8 22.48 8 18.139a7.8 7.8 0 0 1 1.743-4.925Z" fill="url(#a)"/><path d="m9.743 13.214.691-.842.021.155c.017.124.037.247.06.372.448 2.336 2.045 4.285 4.716 5.793 2.322 1.317 3.674 2.83 4.063 4.49.163.692.192 1.373.122 1.969l-.005.037-.033.016a7.912 7.912 0 0 1-3.471.796C11.54 26 8 22.48 8 18.139a7.8 7.8 0 0 1 1.743-4.925Z" fill="url(#b)" fill-opacity=".8"/><path d="M22.096 13.245a7.8 7.8 0 0 1 1.718 4.894 7.8 7.8 0 0 1-1.766 4.952l-.095.117-.026-.148a7.08 7.08 0 0 0-.075-.381c-.553-2.418-2.354-4.492-5.318-6.17-2-1.131-3.146-2.493-3.447-4.04-.194-1-.05-2.005.23-2.865.278-.86.693-1.581 1.046-2.015l1.153-1.404a.507.507 0 0 1 .783 0l5.797 7.06Z" fill="url(#c)"/><path d="M22.096 13.245a7.8 7.8 0 0 1 1.718 4.894 7.8 7.8 0 0 1-1.766 4.952l-.095.117-.026-.148a7.08 7.08 0 0 0-.075-.381c-.553-2.418-2.354-4.492-5.318-6.17-2-1.131-3.146-2.493-3.447-4.04-.194-1-.05-2.005.23-2.865.278-.86.693-1.581 1.046-2.015l1.153-1.404a.507.507 0 0 1 .783 0l5.797 7.06Z" fill="url(#d)" fill-opacity=".8"/><defs><radialGradient id="b" cx="0" cy="0" r="1" gradientUnits="userSpaceOnUse" gradientTransform="matrix(8.00001 20.00004 -14.27784 5.71113 16 6)"><stop offset=".007" stop-color="#fff"/><stop offset="1" stop-color="#fff" stop-opacity="0"/></radialGradient><radialGradient id="d" cx="0" cy="0" r="1" gradientUnits="userSpaceOnUse" gradientTransform="matrix(8.00001 20.00004 -14.27784 5.71113 16 6)"><stop offset=".007" stop-color="#fff"/><stop offset="1" stop-color="#fff" stop-opacity="0"/></radialGradient><linearGradient id="a" x1="8" y1="6" x2="25.633" y2="7.759" gradientUnits="userSpaceOnUse"><stop stop-color="#DAF7FF"/><stop offset="1" stop-color="#47D6FF"/></linearGradient><linearGradient id="c" x1="8" y1="6" x2="25.633" y2="7.759" gradientUnits="userSpaceOnUse"><stop stop-color="#DAF7FF"/><stop offset="1" stop-color="#47D6FF"/></linearGradient></defs></svg>