<svg width="15" height="14" viewBox="0 0 15 14" fill="none" xmlns="http://www.w3.org/2000/svg">
<path fill-rule="evenodd" clip-rule="evenodd" d="M0.835938 7.00065C0.835938 3.31875 3.82071 0.333984 7.5026 0.333984C11.1845 0.333984 14.1693 3.31875 14.1693 7.00065C14.1693 10.6826 11.1845 13.6673 7.5026 13.6673C3.82071 13.6673 0.835938 10.6826 0.835938 7.00065ZM7.5026 2.66732C7.87079 2.66732 8.16927 2.96579 8.16927 3.33398V3.74976C8.7053 3.88539 9.17827 4.1837 9.48653 4.61002C9.70227 4.90838 9.6353 5.32514 9.33694 5.54088C9.03857 5.75662 8.62181 5.68965 8.40607 5.39128C8.26123 5.19098 7.93822 5.00065 7.5026 5.00065H7.31742C6.7209 5.00065 6.5026 5.36393 6.5026 5.51917V5.57005C6.5026 5.70156 6.60202 5.9224 6.93763 6.05664L8.56276 6.70669C9.27405 6.99121 9.83594 7.62638 9.83594 8.43125C9.83594 9.41327 9.05127 10.0769 8.16927 10.2734V10.6673C8.16927 11.0355 7.87079 11.334 7.5026 11.334C7.13441 11.334 6.83594 11.0355 6.83594 10.6673V10.2515C6.2999 10.1159 5.82694 9.8176 5.51868 9.39128C5.30294 9.09292 5.36991 8.67616 5.66827 8.46042C5.96664 8.24468 6.3834 8.31166 6.59914 8.61002C6.74398 8.81033 7.06699 9.00065 7.5026 9.00065H7.62419C8.25583 9.00065 8.5026 8.61459 8.5026 8.43125C8.5026 8.29974 8.40318 8.07891 8.06757 7.94466L6.44245 7.29461C5.73115 7.01009 5.16927 6.37492 5.16927 5.57005V5.51917C5.16927 4.54317 5.96218 3.89335 6.83594 3.71619V3.33398C6.83594 2.96579 7.13441 2.66732 7.5026 2.66732Z" fill="#FCFCFC"/>
</svg>
