<svg width="75" height="34" viewBox="0 0 75 34" fill="none" xmlns="http://www.w3.org/2000/svg">
<path d="M0 17C0 7.61116 7.61116 0 17 0H58C67.3888 0 75 7.61116 75 17C75 26.3888 67.3888 34 58 34H17C7.61116 34 0 26.3888 0 17Z" fill="#FCFCFC" fill-opacity="0.03"/>
<path d="M0 17C0 7.61116 7.61116 0 17 0H58C67.3888 0 75 7.61116 75 17C75 26.3888 67.3888 34 58 34H17C7.61116 34 0 26.3888 0 17Z" fill="url(#paint0_radial_14221_74033)" fill-opacity="0.2"/>
<g opacity="0.56">
<path fill-rule="evenodd" clip-rule="evenodd" d="M17.3738 21.3744C16.9833 21.7649 16.3501 21.7649 15.9596 21.3744L12.2929 17.7078C12.1054 17.5202 12 17.2659 12 17.0007C12 16.7354 12.1054 16.4811 12.2929 16.2936L15.9596 12.6269C16.3501 12.2364 16.9832 12.2364 17.3738 12.6269C17.7643 13.0174 17.7643 13.6506 17.3738 14.0411L15.4142 16.0007H23C23.5523 16.0007 24 16.4484 24 17.0007C24 17.5529 23.5523 18.0007 23 18.0007H15.4142L17.3738 19.9602C17.7643 20.3507 17.7643 20.9839 17.3738 21.3744Z" fill="#FCFCFC"/>
</g>
<path d="M35.09 22V11.906H38.786C40.704 11.906 41.992 12.816 41.992 14.468C41.992 15.448 41.39 16.204 40.592 16.554C41.67 16.946 42.356 17.786 42.356 19.046C42.356 20.964 41.082 22 38.982 22H35.09ZM38.716 20.726C40.13 20.726 40.858 20.096 40.858 18.99C40.858 17.912 40.13 17.296 38.716 17.296H36.546V20.726H38.716ZM38.716 16.036C39.878 16.036 40.508 15.546 40.508 14.622C40.508 13.712 39.864 13.18 38.716 13.18H36.546V16.036H38.716ZM45.6923 22.14C44.2363 22.14 43.1863 21.286 43.1863 20.04C43.1863 18.78 44.1243 18.024 45.6783 17.8L47.9743 17.464V17.198C47.9743 16.19 47.2883 15.686 46.3923 15.686C45.3423 15.686 44.7683 16.246 44.5723 17.058L43.2983 16.694C43.6343 15.588 44.6283 14.594 46.3923 14.594C48.1003 14.594 49.3183 15.56 49.3183 17.24V22H47.9603V20.908C47.4423 21.762 46.5603 22.14 45.6923 22.14ZM44.5863 19.998C44.5863 20.628 45.1183 21.076 45.8883 21.076C47.0083 21.076 47.7083 20.292 47.9603 19.466V18.472L45.8883 18.808C45.0623 18.948 44.5863 19.312 44.5863 19.998ZM54.0577 22.14C51.9437 22.14 50.4877 20.6 50.4877 18.36C50.4877 16.12 51.9437 14.594 54.0577 14.594C55.7237 14.594 56.9557 15.532 57.2077 17.002L55.9197 17.24H55.8637C55.6957 16.386 54.9957 15.784 54.0717 15.784C52.7557 15.784 51.8877 16.82 51.8877 18.36C51.8877 19.914 52.7557 20.95 54.0717 20.95C55.0377 20.95 55.7377 20.376 55.9197 19.368L57.2637 19.62C56.9557 21.202 55.7237 22.14 54.0577 22.14ZM62.8649 14.734H64.7129V14.79L61.7589 17.548L64.3349 21.104L64.9649 21.944V22H63.2989L63.2569 21.944L62.6689 21.104L60.7789 18.444L59.7429 19.41V22H58.3989V11.766H59.7429V17.646L61.8429 15.7L62.7949 14.79L62.8649 14.734Z" fill="#FCFCFC"/>
<defs>
<radialGradient id="paint0_radial_14221_74033" cx="0" cy="0" r="1" gradientUnits="userSpaceOnUse" gradientTransform="translate(7.5367e-06 -0.548394) rotate(59.4187) scale(57.3288 53.448)">
<stop stop-color="#FCFCFC" stop-opacity="0.2"/>
<stop offset="1" stop-color="#FCFCFC" stop-opacity="0"/>
</radialGradient>
</defs>
</svg>
