<svg width="52" height="52" viewBox="0 0 52 52" fill="none" xmlns="http://www.w3.org/2000/svg">
<path d="M33.1482 30.1171C33.1482 26.3256 30.8732 25.0256 26.3232 24.484C23.0732 24.0506 22.4232 23.184 22.4232 21.6671C22.4232 20.1503 23.5066 19.1756 25.6732 19.1756C27.6232 19.1756 28.7066 19.8256 29.2482 21.4506C29.3566 21.7756 29.6816 21.9921 30.0066 21.9921H31.7398C32.1732 21.9921 32.4982 21.6671 32.4982 21.234V21.1256C32.0648 18.7421 30.1148 16.9006 27.6232 16.684V14.084C27.6232 13.6506 27.2982 13.3256 26.7566 13.2171H25.1316C24.6982 13.2171 24.3732 13.5421 24.2648 14.084V16.5756C21.0148 17.009 18.9566 19.1756 18.9566 21.884C18.9566 25.459 21.1232 26.8671 25.6732 27.409C28.7066 27.9506 29.6816 28.6006 29.6816 30.334C29.6816 32.0674 28.1648 33.259 26.1066 33.259C23.2898 33.259 22.3148 32.0671 21.9898 30.4421C21.8816 30.009 21.5566 29.7921 21.2316 29.7921H19.3898C18.9566 29.7921 18.6316 30.1171 18.6316 30.5506V30.659C19.0648 33.3671 20.7982 35.3171 24.3732 35.859V38.459C24.3732 38.8921 24.6982 39.2171 25.2398 39.3256H26.8648C27.2982 39.3256 27.6232 39.0006 27.7316 38.459V35.859C30.9816 35.3171 33.1482 33.0421 33.1482 30.1171Z" fill="white"/>
<path d="M20.4732 41.4921C12.0232 38.459 7.68979 29.034 10.8316 20.6921C12.4566 16.1421 16.0316 12.6756 20.4732 11.0506C20.9066 10.834 21.1232 10.509 21.1232 9.96714V8.45056C21.1232 8.01714 20.9066 7.69214 20.4732 7.58398C20.3648 7.58398 20.1482 7.58398 20.0398 7.69214C9.74821 10.9421 4.11479 21.884 7.36479 32.1756C9.31479 38.2421 13.9732 42.9006 20.0398 44.8506C20.4732 45.0672 20.9066 44.8506 21.0148 44.4171C21.1232 44.309 21.1232 44.2006 21.1232 43.984V42.4671C21.1232 42.1421 20.7982 41.709 20.4732 41.4921ZM31.9566 7.69214C31.5232 7.47556 31.0898 7.69214 30.9816 8.12556C30.8732 8.23398 30.8732 8.34214 30.8732 8.55898V10.0756C30.8732 10.509 31.1982 10.9421 31.5232 11.159C39.9732 14.1921 44.3066 23.6171 41.1648 31.959C39.5398 36.509 35.9648 39.9756 31.5232 41.6006C31.0898 41.8172 30.8732 42.1421 30.8732 42.684V44.2006C30.8732 44.634 31.0898 44.959 31.5232 45.0671C31.6316 45.0671 31.8482 45.0672 31.9566 44.959C42.2482 41.709 47.8816 30.7671 44.6316 20.4756C42.6816 14.3006 37.9148 9.64214 31.9566 7.69214Z" fill="white"/>
<g clip-path="url(#clip0_14424_30599)">
<path d="M50.3358 26.0663C50.3358 12.6497 39.4595 1.77344 26.0429 1.77344C12.6263 1.77344 1.75 12.6497 1.75 26.0663C1.75 39.483 12.6263 50.3593 26.0429 50.3593C39.4595 50.3593 50.3358 39.483 50.3358 26.0663Z" fill="black"/>
<path d="M35.3337 25.2614L39.1861 11.375H45.3501L41.4976 25.2614H35.3337Z" fill="#174CFA"/>
<path fill-rule="evenodd" clip-rule="evenodd" d="M14.5302 13.6894H6.05469V11.375H23.0057L13.7597 39.1477H6.05469L14.5302 13.6894Z" fill="#174CFA"/>
<path fill-rule="evenodd" clip-rule="evenodd" d="M21.4647 32.2045L27.6287 11.375H33.7927L27.6287 32.2045H21.4647Z" fill="#174CFA"/>
<path d="M35.3337 25.2614L39.1861 11.375H45.3501L41.4976 25.2614H35.3337Z" stroke="#174CFA" stroke-width="0.147727"/>
<path fill-rule="evenodd" clip-rule="evenodd" d="M14.5302 13.6894H6.05469V11.375H23.0057L13.7597 39.1477H6.05469L14.5302 13.6894Z" stroke="#174CFA" stroke-width="0.147727"/>
<path fill-rule="evenodd" clip-rule="evenodd" d="M21.4647 32.2045L27.6287 11.375H33.7927L27.6287 32.2045H21.4647Z" stroke="#174CFA" stroke-width="0.147727"/>
<g clip-path="url(#clip1_14424_30599)">
<path d="M10.7812 36.4155C10.7812 31.6426 14.6504 27.7734 19.4233 27.7734C24.1962 27.7734 28.0653 31.6426 28.0653 36.4155C28.0653 41.1884 24.1962 45.0575 19.4233 45.0575C14.6504 45.0575 10.7812 41.1884 10.7812 36.4155Z" fill="#2775CA"/>
<path d="M21.8054 37.7846C21.8054 36.5244 21.0492 36.0923 19.5368 35.9123C18.4566 35.7682 18.2405 35.4801 18.2405 34.976C18.2405 34.4718 18.6006 34.1478 19.3208 34.1478C19.9689 34.1478 20.329 34.3639 20.5091 34.904C20.5451 35.012 20.6531 35.084 20.7611 35.084H21.3372C21.4813 35.084 21.5893 34.976 21.5893 34.832V34.796C21.4453 34.0037 20.7971 33.3916 19.9689 33.3196V32.4554C19.9689 32.3114 19.8609 32.2033 19.6809 32.1673H19.1408C18.9967 32.1673 18.8887 32.2753 18.8526 32.4554V33.2836C17.7724 33.4277 17.0883 34.1478 17.0883 35.048C17.0883 36.2363 17.8084 36.7044 19.3208 36.8845C20.329 37.0645 20.6531 37.2805 20.6531 37.8567C20.6531 38.4329 20.1489 38.8289 19.4648 38.8289C18.5286 38.8289 18.2045 38.4328 18.0965 37.8927C18.0605 37.7487 17.9525 37.6766 17.8445 37.6766H17.2323C17.0883 37.6766 16.9803 37.7846 16.9803 37.9287V37.9647C17.1242 38.8649 17.7004 39.513 18.8887 39.6931V40.5574C18.8887 40.7013 18.9967 40.8094 19.1767 40.8454H19.7168C19.8609 40.8454 19.9689 40.7374 20.005 40.5574V39.6931C21.0852 39.513 21.8054 38.7569 21.8054 37.7846Z" fill="white"/>
<path d="M17.5924 41.5655C14.7837 40.5574 13.3433 37.4246 14.3876 34.6519C14.9278 33.1395 16.116 31.9873 17.5924 31.4472C17.7364 31.3752 17.8084 31.2672 17.8084 31.0871V30.583C17.8084 30.4389 17.7364 30.3309 17.5924 30.2949C17.5563 30.2949 17.4843 30.2949 17.4483 30.3309C14.0275 31.4111 12.1551 35.048 13.2353 38.4688C13.8835 40.4853 15.4319 42.0337 17.4483 42.6818C17.5924 42.7538 17.7364 42.6818 17.7724 42.5378C17.8084 42.5018 17.8084 42.4658 17.8084 42.3938V41.8896C17.8084 41.7816 17.7004 41.6376 17.5924 41.5655ZM21.4093 30.3309C21.2652 30.2589 21.1212 30.3309 21.0852 30.4749C21.0492 30.511 21.0492 30.5469 21.0492 30.619V31.1231C21.0492 31.2672 21.1572 31.4111 21.2652 31.4832C24.0739 32.4914 25.5143 35.6241 24.47 38.3968C23.9298 39.9092 22.7416 41.0614 21.2652 41.6016C21.1212 41.6736 21.0492 41.7816 21.0492 41.9617V42.4658C21.0492 42.6098 21.1212 42.7179 21.2652 42.7538C21.3013 42.7538 21.3733 42.7538 21.4093 42.7179C24.8301 41.6376 26.7026 38.0007 25.6223 34.5799C24.9741 32.5274 23.3897 30.979 21.4093 30.3309Z" fill="white"/>
<path d="M10.7812 36.4155C10.7812 31.6426 14.6504 27.7734 19.4233 27.7734C24.1962 27.7734 28.0653 31.6426 28.0653 36.4155C28.0653 41.1884 24.1962 45.0575 19.4233 45.0575C14.6504 45.0575 10.7812 41.1884 10.7812 36.4155Z" fill="#C7E5FC"/>
<path fill-rule="evenodd" clip-rule="evenodd" d="M20.5181 37.3953C20.457 37.3999 20.1413 37.4187 19.437 37.4187C18.8769 37.4187 18.4792 37.4019 18.3396 37.3953C16.1749 37.3001 14.5592 36.9232 14.5592 36.4721C14.5592 36.0209 16.1749 35.6446 18.3396 35.5478V37.02C18.4812 37.0302 18.8866 37.0541 19.4467 37.0541C20.1189 37.0541 20.4555 37.0261 20.5161 37.0205V35.5488C22.6762 35.6451 24.2884 36.0219 24.2884 36.4721C24.2884 36.9222 22.6767 37.299 20.5161 37.3948L20.5181 37.3953ZM20.5181 35.3966V34.0792H23.5327V32.0703H15.325V34.0792H18.3391V35.3961C15.8893 35.5086 14.0469 35.9939 14.0469 36.5754C14.0469 37.157 15.8893 37.6418 18.3391 37.7548V41.9763H20.5176V37.7533C22.9619 37.6407 24.8012 37.1559 24.8012 36.5749C24.8012 35.9939 22.9634 35.5091 20.5176 35.3961L20.5181 35.3966Z" fill="#3E73C4"/>
<path d="M24.2266 36.4155C24.2266 31.6426 28.0957 27.7734 32.8686 27.7734C37.6415 27.7734 41.5107 31.6426 41.5107 36.4155C41.5107 41.1884 37.6415 45.0575 32.8686 45.0575C28.0957 45.0575 24.2266 41.1884 24.2266 36.4155Z" fill="#2775CA"/>
<path d="M35.2429 37.7846C35.2429 36.5244 34.4867 36.0923 32.9743 35.9123C31.8941 35.7682 31.678 35.4801 31.678 34.976C31.678 34.4718 32.0381 34.1478 32.7583 34.1478C33.4064 34.1478 33.7665 34.3639 33.9466 34.904C33.9826 35.012 34.0906 35.084 34.1986 35.084H34.7747C34.9188 35.084 35.0268 34.976 35.0268 34.832V34.796C34.8828 34.0037 34.2346 33.3916 33.4064 33.3196V32.4554C33.4064 32.3114 33.2984 32.2033 33.1184 32.1673H32.5783C32.4342 32.1673 32.3262 32.2753 32.2901 32.4554V33.2836C31.2099 33.4277 30.5258 34.1478 30.5258 35.048C30.5258 36.2363 31.2459 36.7044 32.7583 36.8845C33.7665 37.0645 34.0906 37.2805 34.0906 37.8567C34.0906 38.4329 33.5864 38.8289 32.9023 38.8289C31.9661 38.8289 31.642 38.4328 31.534 37.8927C31.498 37.7487 31.39 37.6766 31.282 37.6766H30.6698C30.5258 37.6766 30.4178 37.7846 30.4178 37.9287V37.9647C30.5617 38.8649 31.1379 39.513 32.3262 39.6931V40.5574C32.3262 40.7013 32.4342 40.8094 32.6142 40.8454H33.1543C33.2984 40.8454 33.4064 40.7374 33.4425 40.5574V39.6931C34.5227 39.513 35.2429 38.7569 35.2429 37.7846Z" fill="white"/>
<path d="M31.0299 41.5655C28.2212 40.5574 26.7808 37.4246 27.8251 34.6519C28.3653 33.1395 29.5535 31.9873 31.0299 31.4472C31.1739 31.3752 31.2459 31.2672 31.2459 31.0871V30.583C31.2459 30.4389 31.1739 30.3309 31.0299 30.2949C30.9938 30.2949 30.9218 30.2949 30.8858 30.3309C27.465 31.4111 25.5926 35.048 26.6728 38.4688C27.321 40.4853 28.8694 42.0337 30.8858 42.6818C31.0299 42.7538 31.1739 42.6818 31.2099 42.5378C31.2459 42.5018 31.2459 42.4658 31.2459 42.3938V41.8896C31.2459 41.7816 31.1379 41.6376 31.0299 41.5655ZM34.8468 30.3309C34.7027 30.2589 34.5587 30.3309 34.5227 30.4749C34.4867 30.511 34.4867 30.5469 34.4867 30.619V31.1231C34.4867 31.2672 34.5947 31.4111 34.7027 31.4832C37.5114 32.4914 38.9518 35.6241 37.9075 38.3968C37.3673 39.9092 36.1791 41.0614 34.7027 41.6016C34.5587 41.6736 34.4867 41.7816 34.4867 41.9617V42.4658C34.4867 42.6098 34.5587 42.7179 34.7027 42.7538C34.7388 42.7538 34.8108 42.7538 34.8468 42.7179C38.2676 41.6376 40.1401 38.0007 39.0598 34.5799C38.4116 32.5274 36.8272 30.979 34.8468 30.3309Z" fill="white"/>
</g>
</g>
<defs>
<clipPath id="clip0_14424_30599">
<rect width="52.0563" height="54.6591" fill="white" transform="translate(1.75 1.77344)"/>
</clipPath>
<clipPath id="clip1_14424_30599">
<rect width="30.7273" height="17.2841" fill="white" transform="translate(10.7812 27.7734)"/>
</clipPath>
</defs>
</svg>
