<svg width="63" height="66" viewBox="0 0 63 66" fill="none" xmlns="http://www.w3.org/2000/svg">
<path d="M38.2485 34.7498C38.2485 30.3749 35.6235 28.8749 30.3735 28.25C26.6235 27.7499 25.8735 26.75 25.8735 24.9998C25.8735 23.2496 27.1236 22.1249 29.6235 22.1249C31.8735 22.1249 33.1236 22.8749 33.7485 24.7499C33.8736 25.1249 34.2486 25.3748 34.6236 25.3748H36.6234C37.1235 25.3748 37.4985 24.9998 37.4985 24.5V24.3749C36.9984 21.6248 34.7484 19.4999 31.8735 19.25V16.25C31.8735 15.7499 31.4985 15.3749 30.8736 15.2498H28.9986C28.4985 15.2498 28.1235 15.6248 27.9984 16.25V19.1249C24.2484 19.625 21.8736 22.1249 21.8736 25.25C21.8736 29.375 24.3735 30.9998 29.6235 31.625C33.1236 32.2499 34.2486 32.9999 34.2486 35C34.2486 37.0001 32.4984 38.375 30.1236 38.375C26.8734 38.375 25.7484 36.9998 25.3734 35.1248C25.2486 34.625 24.8736 34.3748 24.4986 34.3748H22.3734C21.8736 34.3748 21.4986 34.7498 21.4986 35.2499V35.375C21.9984 38.4998 23.9985 40.7498 28.1235 41.375V44.375C28.1235 44.8748 28.4985 45.2498 29.1234 45.3749H30.9984C31.4985 45.3749 31.8735 44.9999 31.9986 44.375V41.375C35.7486 40.7498 38.2485 38.1248 38.2485 34.7498Z" fill="white"/>
<path d="M23.6235 47.8748C13.8735 44.375 8.87343 33.5 12.4986 23.8748C14.3736 18.6248 18.4986 14.6249 23.6235 12.7499C24.1236 12.5 24.3735 12.125 24.3735 11.4998V9.7499C24.3735 9.2498 24.1236 8.8748 23.6235 8.75C23.4984 8.75 23.2485 8.75 23.1234 8.8748C11.2485 12.6248 4.74843 25.25 8.49843 37.1249C10.7484 44.1248 16.1235 49.4999 23.1234 51.7499C23.6235 51.9998 24.1236 51.7499 24.2484 51.2498C24.3735 51.125 24.3735 50.9999 24.3735 50.75V48.9998C24.3735 48.6248 23.9985 48.125 23.6235 47.8748ZM36.8736 8.8748C36.3735 8.6249 35.8734 8.8748 35.7486 9.3749C35.6235 9.5 35.6235 9.6248 35.6235 9.875V11.6249C35.6235 12.125 35.9985 12.6248 36.3735 12.875C46.1235 16.3748 51.1236 27.2498 47.4984 36.875C45.6234 42.125 41.4984 46.1249 36.3735 47.9999C35.8734 48.2498 35.6235 48.6248 35.6235 49.25V50.9999C35.6235 51.5 35.8734 51.875 36.3735 51.9998C36.4986 51.9998 36.7485 51.9998 36.8736 51.875C48.7485 48.125 55.2486 35.4998 51.4986 23.6249C49.2486 16.4999 43.7484 11.1248 36.8736 8.8748Z" fill="white"/>
<g clip-path="url(#clip0_14415_30753)">
<path d="M58.0762 30.0752C58.0762 14.5945 45.5266 2.04492 30.0459 2.04492C14.5652 2.04492 2.01562 14.5945 2.01562 30.0752C2.01562 45.5559 14.5652 58.1055 30.0459 58.1055C45.5266 58.1055 58.0762 45.5559 58.0762 30.0752Z" fill="black"/>
<path d="M40.7756 29.1477L45.2208 13.125H52.3331L47.8879 29.1477H40.7756Z" fill="#174CFA"/>
<path fill-rule="evenodd" clip-rule="evenodd" d="M16.7716 15.7955H6.99219V13.125H26.551L15.8826 45.1705H6.99219L16.7716 15.7955Z" fill="#174CFA"/>
<path fill-rule="evenodd" clip-rule="evenodd" d="M24.7729 37.1591L31.8852 13.125H38.9975L31.8852 37.1591H24.7729Z" fill="#174CFA"/>
<path d="M40.7756 29.1477L45.2208 13.125H52.3331L47.8879 29.1477H40.7756Z" stroke="#174CFA" stroke-width="0.170455"/>
<path fill-rule="evenodd" clip-rule="evenodd" d="M16.7716 15.7955H6.99219V13.125H26.551L15.8826 45.1705H6.99219L16.7716 15.7955Z" stroke="#174CFA" stroke-width="0.170455"/>
<path fill-rule="evenodd" clip-rule="evenodd" d="M24.7729 37.1591L31.8852 13.125H38.9975L31.8852 37.1591H24.7729Z" stroke="#174CFA" stroke-width="0.170455"/>
<g clip-path="url(#clip1_14415_30753)">
<path d="M12.4453 42.0165C12.4453 36.5094 16.9097 32.0449 22.4169 32.0449C27.9241 32.0449 32.3885 36.5094 32.3885 42.0165C32.3885 47.5237 27.9241 51.9881 22.4169 51.9881C16.9097 51.9881 12.4453 47.5237 12.4453 42.0165Z" fill="#2775CA"/>
<path d="M25.1552 43.5971C25.1552 42.1429 24.2827 41.6443 22.5377 41.4366C21.2912 41.2704 21.0419 40.938 21.0419 40.3563C21.0419 39.7745 21.4575 39.4007 22.2884 39.4007C23.0363 39.4007 23.4518 39.65 23.6595 40.2732C23.7011 40.3979 23.8257 40.4809 23.9504 40.4809H24.6151C24.7813 40.4809 24.9059 40.3563 24.9059 40.1902V40.1486C24.7397 39.2345 23.9918 38.5282 23.0363 38.4451V37.448C23.0363 37.2817 22.9116 37.1571 22.7039 37.1155H22.0807C21.9145 37.1155 21.7898 37.2402 21.7482 37.448V38.4036C20.5018 38.5698 19.7124 39.4007 19.7124 40.4395C19.7124 41.8105 20.5434 42.3506 22.2884 42.5584C23.4518 42.7661 23.8257 43.0154 23.8257 43.6802C23.8257 44.345 23.244 44.802 22.4546 44.802C21.3743 44.802 21.0004 44.3449 20.8757 43.7217C20.8342 43.5556 20.7096 43.4724 20.585 43.4724H19.8786C19.7124 43.4724 19.5878 43.5971 19.5878 43.7633V43.8049C19.7539 44.8435 20.4187 45.5914 21.7898 45.7992V46.7963C21.7898 46.9625 21.9145 47.0871 22.1222 47.1287H22.7454C22.9116 47.1287 23.0363 47.0041 23.0778 46.7963V45.7992C24.3243 45.5914 25.1552 44.7189 25.1552 43.5971Z" fill="white"/>
<path d="M20.2941 47.9596C17.0533 46.7963 15.3913 43.1816 16.5963 39.9824C17.2195 38.2373 18.5906 36.9078 20.2941 36.2846C20.4603 36.2015 20.5434 36.0769 20.5434 35.8691V35.2874C20.5434 35.1212 20.4603 34.9966 20.2941 34.9551C20.2525 34.9551 20.1694 34.9551 20.1279 34.9966C16.1808 36.243 14.0203 40.4395 15.2667 44.3865C16.0146 46.7132 17.8012 48.4998 20.1279 49.2477C20.2941 49.3307 20.4603 49.2477 20.5018 49.0814C20.5434 49.04 20.5434 48.9984 20.5434 48.9153V48.3336C20.5434 48.2089 20.4187 48.0428 20.2941 47.9596ZM24.6982 34.9966C24.532 34.9135 24.3658 34.9966 24.3243 35.1628C24.2827 35.2044 24.2827 35.2458 24.2827 35.329V35.9107C24.2827 36.0769 24.4074 36.243 24.532 36.3262C27.7728 37.4895 29.4347 41.1042 28.2298 44.3034C27.6065 46.0485 26.2355 47.378 24.532 48.0012C24.3658 48.0843 24.2827 48.2089 24.2827 48.4167V48.9984C24.2827 49.1646 24.3658 49.2892 24.532 49.3307C24.5736 49.3307 24.6567 49.3307 24.6982 49.2892C28.6453 48.0428 30.8058 43.8463 29.5594 39.8993C28.8115 37.531 26.9833 35.7444 24.6982 34.9966Z" fill="white"/>
<path d="M12.4453 42.0165C12.4453 36.5094 16.9097 32.0449 22.4169 32.0449C27.9241 32.0449 32.3885 36.5094 32.3885 42.0165C32.3885 47.5237 27.9241 51.9881 22.4169 51.9881C16.9097 51.9881 12.4453 47.5237 12.4453 42.0165Z" fill="#C7E5FC"/>
<path fill-rule="evenodd" clip-rule="evenodd" d="M23.6777 43.1461C23.6072 43.1514 23.2429 43.1732 22.4303 43.1732C21.784 43.1732 21.3251 43.1538 21.1641 43.1461C18.6664 43.0363 16.802 42.6015 16.802 42.0809C16.802 41.5603 18.6664 41.1261 21.1641 41.0144V42.7131C21.3275 42.7249 21.7952 42.7525 22.4415 42.7525C23.2171 42.7525 23.6055 42.7202 23.6754 42.7137V41.0156C26.1679 41.1267 28.0281 41.5615 28.0281 42.0809C28.0281 42.6003 26.1685 43.0351 23.6754 43.1456L23.6777 43.1461ZM23.6778 40.8399V39.3199H27.1562V37.002H17.6857V39.3199H21.1635V40.8394C18.3368 40.9692 16.2109 41.5292 16.2109 42.2002C16.2109 42.8712 18.3368 43.4305 21.1635 43.561V48.4319H23.6772V43.5592C26.4975 43.4294 28.6198 42.87 28.6198 42.1996C28.6198 41.5292 26.4993 40.9698 23.6772 40.8394L23.6778 40.8399Z" fill="#3E73C4"/>
<path d="M27.9531 42.0165C27.9531 36.5094 32.4176 32.0449 37.9247 32.0449C43.4319 32.0449 47.8963 36.5094 47.8963 42.0165C47.8963 47.5237 43.4319 51.9881 37.9247 51.9881C32.4176 51.9881 27.9531 47.5237 27.9531 42.0165Z" fill="#2775CA"/>
<path d="M40.6709 43.5971C40.6709 42.1429 39.7983 41.6443 38.0533 41.4366C36.8069 41.2704 36.5576 40.938 36.5576 40.3563C36.5576 39.7745 36.9731 39.4007 37.804 39.4007C38.5519 39.4007 38.9674 39.65 39.1751 40.2732C39.2167 40.3979 39.3413 40.4809 39.466 40.4809H40.1307C40.2969 40.4809 40.4216 40.3563 40.4216 40.1902V40.1486C40.2553 39.2345 39.5075 38.5282 38.5519 38.4451V37.448C38.5519 37.2817 38.4272 37.1571 38.2195 37.1155H37.5963C37.4301 37.1155 37.3054 37.2402 37.2639 37.448V38.4036C36.0174 38.5698 35.2281 39.4007 35.2281 40.4395C35.2281 41.8105 36.059 42.3506 37.804 42.5584C38.9674 42.7661 39.3413 43.0154 39.3413 43.6802C39.3413 44.345 38.7596 44.802 37.9702 44.802C36.8899 44.802 36.516 44.3449 36.3913 43.7217C36.3499 43.5556 36.2252 43.4724 36.1006 43.4724H35.3942C35.2281 43.4724 35.1034 43.5971 35.1034 43.7633V43.8049C35.2695 44.8435 35.9343 45.5914 37.3054 45.7992V46.7963C37.3054 46.9625 37.4301 47.0871 37.6378 47.1287H38.261C38.4272 47.1287 38.5519 47.0041 38.5935 46.7963V45.7992C39.8399 45.5914 40.6709 44.7189 40.6709 43.5971Z" fill="white"/>
<path d="M35.8097 47.9596C32.5689 46.7963 30.907 43.1816 32.1119 39.9824C32.7352 38.2373 34.1063 36.9078 35.8097 36.2846C35.9759 36.2015 36.059 36.0769 36.059 35.8691V35.2874C36.059 35.1212 35.9759 34.9966 35.8097 34.9551C35.7681 34.9551 35.6851 34.9551 35.6435 34.9966C31.6964 36.243 29.5359 40.4395 30.7823 44.3865C31.5302 46.7132 33.3168 48.4998 35.6435 49.2477C35.8097 49.3307 35.9759 49.2477 36.0174 49.0814C36.059 49.04 36.059 48.9984 36.059 48.9153V48.3336C36.059 48.2089 35.9343 48.0428 35.8097 47.9596ZM40.2139 34.9966C40.0476 34.9135 39.8814 34.9966 39.8399 35.1628C39.7983 35.2044 39.7983 35.2458 39.7983 35.329V35.9107C39.7983 36.0769 39.923 36.243 40.0476 36.3262C43.2884 37.4895 44.9504 41.1042 43.7454 44.3034C43.1222 46.0485 41.7511 47.378 40.0476 48.0012C39.8814 48.0843 39.7983 48.2089 39.7983 48.4167V48.9984C39.7983 49.1646 39.8814 49.2892 40.0476 49.3307C40.0892 49.3307 40.1723 49.3307 40.2139 49.2892C44.1609 48.0428 46.3215 43.8463 45.075 39.8993C44.3271 37.531 42.4989 35.7444 40.2139 34.9966Z" fill="white"/>
</g>
</g>
<path d="M29.2256 59.9902C13.2723 59.586 0.413999 46.7277 0.00976818 30.7744L2.62268e-06 30C4.07115e-06 13.4315 13.4315 -2.56454e-07 30 -2.62268e-06L30.7744 0.00976307C46.9851 0.420516 60 13.6904 60 30L59.9902 30.7744C59.5795 46.9851 46.3096 60 30 60L29.2256 59.9902ZM30 54.8867C30.6462 54.8867 31.2867 54.8621 31.9205 54.8137C35.756 54.5208 36.3047 48.8018 36.3047 44.9551C36.3047 40.1787 40.1768 36.3066 44.9531 36.3066C48.8002 36.3067 54.52 35.7591 54.8134 31.9232C54.862 31.2885 54.8867 30.6471 54.8867 30C54.8867 16.2556 43.7444 5.11328 30 5.11328C16.2556 5.11328 5.11329 16.2556 5.11328 30C5.11328 43.7444 16.2556 54.8867 30 54.8867Z" fill="#0E252D"/>
<path d="M51.1386 44.6634C51.1386 48.0975 48.3468 50.8807 44.9127 50.8807C41.4786 50.8807 38.6953 48.0975 38.6953 44.6634C38.6953 41.2293 41.4786 38.4375 44.9127 38.4375C45.8375 38.4375 46.7111 38.6345 47.4989 39.0113L47.1735 40.2273C46.3514 43.3103 46.497 43.1647 43.414 43.9869L41.1788 44.5863L41.2131 44.7148C44.0648 45.7424 43.825 45.5112 44.8527 48.363L44.9897 48.3972L45.5892 46.1535C46.4113 43.0791 46.2657 43.2247 49.3402 42.4026L50.5733 42.0686C50.933 42.8564 51.1386 43.7385 51.1386 44.6634Z" fill="#D69D34"/>
<defs>
<clipPath id="clip0_14415_30753">
<rect width="60.0649" height="63.0682" fill="white" transform="translate(2.01562 2.04492)"/>
</clipPath>
<clipPath id="clip1_14415_30753">
<rect width="35.4545" height="19.9432" fill="white" transform="translate(12.4453 32.0449)"/>
</clipPath>
</defs>
</svg>
