<svg width="45" height="45" viewBox="0 0 45 45" fill="none" xmlns="http://www.w3.org/2000/svg">
<g clip-path="url(#clip0_14428_30816)">
<path d="M43.0266 22.0582C43.0266 10.1897 33.4053 0.568359 21.5368 0.568359C9.66822 0.568359 0.046875 10.1897 0.046875 22.0582C0.046875 33.9268 9.66822 43.5481 21.5368 43.5481C33.4053 43.5481 43.0266 33.9268 43.0266 22.0582Z" fill="black"/>
<path d="M29.76 21.3466L33.168 9.0625H38.6207L35.2128 21.3466H29.76Z" fill="#174CFA"/>
<path fill-rule="evenodd" clip-rule="evenodd" d="M11.3569 11.1098H3.85938V9.0625H18.8545L10.6753 33.6307H3.85938L11.3569 11.1098Z" fill="#174CFA"/>
<path fill-rule="evenodd" clip-rule="evenodd" d="M17.4913 27.4886L22.944 9.0625H28.3968L22.944 27.4886H17.4913Z" fill="#174CFA"/>
<path d="M29.76 21.3466L33.168 9.0625H38.6207L35.2128 21.3466H29.76Z" stroke="#174CFA" stroke-width="0.130682"/>
<path fill-rule="evenodd" clip-rule="evenodd" d="M11.3569 11.1098H3.85938V9.0625H18.8545L10.6753 33.6307H3.85938L11.3569 11.1098Z" stroke="#174CFA" stroke-width="0.130682"/>
<path fill-rule="evenodd" clip-rule="evenodd" d="M17.4913 27.4886L22.944 9.0625H28.3968L22.944 27.4886H17.4913Z" stroke="#174CFA" stroke-width="0.130682"/>
<g clip-path="url(#clip1_14428_30816)">
<path d="M8.03906 31.2132C8.03906 26.9911 11.4618 23.5684 15.6839 23.5684C19.9061 23.5684 23.3288 26.9911 23.3288 31.2132C23.3288 35.4354 19.9061 38.8581 15.6839 38.8581C11.4618 38.8581 8.03906 35.4354 8.03906 31.2132Z" fill="#2775CA"/>
<path d="M17.7891 32.4243C17.7891 31.3095 17.1201 30.9272 15.7823 30.768C14.8267 30.6406 14.6355 30.3858 14.6355 29.9398C14.6355 29.4938 14.9541 29.2071 15.5912 29.2071C16.1645 29.2071 16.4831 29.3983 16.6423 29.8761C16.6742 29.9716 16.7698 30.0353 16.8653 30.0353H17.3749C17.5024 30.0353 17.5979 29.9398 17.5979 29.8124V29.7805C17.4705 29.0797 16.8971 28.5382 16.1645 28.4745V27.71C16.1645 27.5826 16.069 27.487 15.9097 27.4552H15.4319C15.3045 27.4552 15.2089 27.5507 15.177 27.71V28.4427C14.2214 28.5701 13.6163 29.2071 13.6163 30.0035C13.6163 31.0547 14.2533 31.4687 15.5912 31.6281C16.4831 31.7873 16.7698 31.9784 16.7698 32.4881C16.7698 32.9978 16.3238 33.3482 15.7186 33.3482C14.8904 33.3482 14.6037 32.9977 14.5081 32.5199C14.4763 32.3925 14.3807 32.3288 14.2852 32.3288H13.7436C13.6163 32.3288 13.5207 32.4243 13.5207 32.5518V32.5837C13.6481 33.38 14.1577 33.9533 15.2089 34.1126V34.8771C15.2089 35.0045 15.3045 35.1001 15.4637 35.1319H15.9415C16.069 35.1319 16.1645 35.0364 16.1964 34.8771V34.1126C17.152 33.9533 17.7891 33.2844 17.7891 32.4243Z" fill="white"/>
<path d="M14.0622 35.769C11.5776 34.8771 10.3034 32.1059 11.2272 29.6531C11.705 28.3152 12.7562 27.2959 14.0622 26.8181C14.1896 26.7544 14.2533 26.6589 14.2533 26.4996V26.0536C14.2533 25.9262 14.1896 25.8306 14.0622 25.7988C14.0303 25.7988 13.9666 25.7988 13.9347 25.8306C10.9087 26.7862 9.25225 30.0035 10.2079 33.0296C10.7812 34.8134 12.151 36.1831 13.9347 36.7565C14.0622 36.8202 14.1896 36.7565 14.2214 36.629C14.2533 36.5972 14.2533 36.5654 14.2533 36.5017V36.0557C14.2533 35.9601 14.1577 35.8327 14.0622 35.769ZM17.4387 25.8306C17.3113 25.7669 17.1838 25.8306 17.152 25.9581C17.1201 25.99 17.1201 26.0218 17.1201 26.0855V26.5314C17.1201 26.6589 17.2157 26.7862 17.3113 26.85C19.7958 27.7419 21.07 30.5131 20.1462 32.9659C19.6684 34.3038 18.6172 35.3231 17.3113 35.8009C17.1838 35.8645 17.1201 35.9601 17.1201 36.1194V36.5654C17.1201 36.6928 17.1838 36.7884 17.3113 36.8202C17.3431 36.8202 17.4068 36.8202 17.4387 36.7884C20.4648 35.8327 22.1212 32.6155 21.1656 29.5894C20.5922 27.7737 19.1906 26.404 17.4387 25.8306Z" fill="white"/>
<path d="M8.03906 31.2132C8.03906 26.9911 11.4618 23.5684 15.6839 23.5684C19.9061 23.5684 23.3288 26.9911 23.3288 31.2132C23.3288 35.4354 19.9061 38.8581 15.6839 38.8581C11.4618 38.8581 8.03906 35.4354 8.03906 31.2132Z" fill="#C7E5FC"/>
<path fill-rule="evenodd" clip-rule="evenodd" d="M16.6542 32.0797C16.6002 32.0837 16.3209 32.1004 15.6979 32.1004C15.2024 32.1004 14.8506 32.0855 14.7271 32.0797C12.8122 31.9954 11.3829 31.6621 11.3829 31.263C11.3829 30.8639 12.8122 30.531 14.7271 30.4454V31.7477C14.8524 31.7567 15.2109 31.7779 15.7065 31.7779C16.3011 31.7779 16.5988 31.7531 16.6524 31.7481V30.4463C18.5633 30.5314 19.9895 30.8648 19.9895 31.263C19.9895 31.6612 18.5638 31.9945 16.6524 32.0792L16.6542 32.0797ZM16.6542 30.3116V29.1462H19.321V27.3691H12.0604V29.1462H14.7267V30.3112C12.5595 30.4107 10.9297 30.84 10.9297 31.3544C10.9297 31.8689 12.5595 32.2977 14.7267 32.3977V36.1321H16.6538V32.3964C18.816 32.2968 20.4431 31.868 20.4431 31.354C20.4431 30.84 18.8174 30.4112 16.6538 30.3112L16.6542 30.3116Z" fill="#3E73C4"/>
<path d="M19.9297 31.2132C19.9297 26.9911 23.3524 23.5684 27.5746 23.5684C31.7967 23.5684 35.2195 26.9911 35.2195 31.2132C35.2195 35.4354 31.7967 38.8581 27.5746 38.8581C23.3524 38.8581 19.9297 35.4354 19.9297 31.2132Z" fill="#2775CA"/>
<path d="M29.6797 32.4243C29.6797 31.3095 29.0108 30.9272 27.6729 30.768C26.7173 30.6406 26.5262 30.3858 26.5262 29.9398C26.5262 29.4938 26.8447 29.2071 27.4818 29.2071C28.0551 29.2071 28.3737 29.3983 28.533 29.8761C28.5648 29.9716 28.6604 30.0353 28.756 30.0353H29.2656C29.393 30.0353 29.4886 29.9398 29.4886 29.8124V29.7805C29.3611 29.0797 28.7878 28.5382 28.0551 28.4745V27.71C28.0551 27.5826 27.9596 27.487 27.8003 27.4552H27.3225C27.1951 27.4552 27.0995 27.5507 27.0677 27.71V28.4427C26.112 28.5701 25.5069 29.2071 25.5069 30.0035C25.5069 31.0547 26.1439 31.4687 27.4818 31.6281C28.3737 31.7873 28.6604 31.9784 28.6604 32.4881C28.6604 32.9978 28.2144 33.3482 27.6092 33.3482C26.781 33.3482 26.4943 32.9977 26.3987 32.5199C26.3669 32.3925 26.2714 32.3288 26.1758 32.3288H25.6342C25.5069 32.3288 25.4113 32.4243 25.4113 32.5518V32.5837C25.5387 33.38 26.0484 33.9533 27.0995 34.1126V34.8771C27.0995 35.0045 27.1951 35.1001 27.3543 35.1319H27.8321C27.9596 35.1319 28.0551 35.0364 28.087 34.8771V34.1126C29.0426 33.9533 29.6797 33.2844 29.6797 32.4243Z" fill="white"/>
<path d="M25.9528 35.769C23.4682 34.8771 22.194 32.1059 23.1179 29.6531C23.5957 28.3152 24.6468 27.2959 25.9528 26.8181C26.0802 26.7544 26.1439 26.6589 26.1439 26.4996V26.0536C26.1439 25.9262 26.0802 25.8306 25.9528 25.7988C25.9209 25.7988 25.8572 25.7988 25.8254 25.8306C22.7993 26.7862 21.1429 30.0035 22.0985 33.0296C22.6718 34.8134 24.0416 36.1831 25.8254 36.7565C25.9528 36.8202 26.0802 36.7565 26.112 36.629C26.1439 36.5972 26.1439 36.5654 26.1439 36.5017V36.0557C26.1439 35.9601 26.0484 35.8327 25.9528 35.769ZM29.3293 25.8306C29.2019 25.7669 29.0744 25.8306 29.0426 25.9581C29.0108 25.99 29.0108 26.0218 29.0108 26.0855V26.5314C29.0108 26.6589 29.1063 26.7862 29.2019 26.85C31.6865 27.7419 32.9606 30.5131 32.0368 32.9659C31.559 34.3038 30.5079 35.3231 29.2019 35.8009C29.0744 35.8645 29.0108 35.9601 29.0108 36.1194V36.5654C29.0108 36.6928 29.0744 36.7884 29.2019 36.8202C29.2338 36.8202 29.2974 36.8202 29.3293 36.7884C32.3554 35.8327 34.0118 32.6155 33.0562 29.5894C32.4828 27.7737 31.0812 26.404 29.3293 25.8306Z" fill="white"/>
</g>
</g>
<defs>
<clipPath id="clip0_14428_30816">
<rect width="46.0498" height="48.3523" fill="white" transform="translate(0.046875 0.568359)"/>
</clipPath>
<clipPath id="clip1_14428_30816">
<rect width="27.1818" height="15.2898" fill="white" transform="translate(8.03906 23.5684)"/>
</clipPath>
</defs>
</svg>
