<svg width="15" height="15" viewBox="0 0 15 15" fill="none" xmlns="http://www.w3.org/2000/svg">
<path d="M14.1047 7.33515C11.0581 6.59453 9.97391 4.16511 9.8126 3.04297C9.13932 6.00541 6.69867 7.13877 5.5625 7.33515C8.42395 7.77278 9.58817 10.3649 9.8126 11.6063C10.5027 8.50918 12.9616 7.4684 14.1047 7.33515Z" fill="#E07637"/>
<path d="M5.31641 2.92007C3.59863 2.50249 2.98729 1.1327 2.89634 0.5C2.51672 2.17032 1.14061 2.80934 0.5 2.92007C2.11338 3.16682 2.7698 4.62835 2.89634 5.32827C3.28545 3.58203 4.67185 2.9952 5.31641 2.92007Z" fill="#E07637"/>
<path d="M6.69359 12.3768C5.17844 12.0084 4.63921 10.8002 4.55899 10.2422C4.22415 11.7155 3.01035 12.2791 2.44531 12.3768C3.86838 12.5944 4.44737 13.8835 4.55899 14.5009C4.9022 12.9606 6.12506 12.443 6.69359 12.3768Z" fill="#E07637"/>
</svg>
