<svg width="52" height="52" viewBox="0 0 52 52" fill="none" xmlns="http://www.w3.org/2000/svg">
<path d="M1.69531 25.9992C1.69531 12.5755 12.5774 1.69336 26.0012 1.69336C39.4249 1.69336 50.307 12.5755 50.307 25.9992C50.307 39.423 39.4249 50.3051 26.0012 50.3051C12.5774 50.3051 1.69531 39.423 1.69531 25.9992Z" fill="url(#paint0_radial_14221_74242)"/>
<path fill-rule="evenodd" clip-rule="evenodd" d="M32.7634 23.3031C33.991 24.7792 34.7252 26.6461 34.7252 28.6768C34.7252 30.7075 33.9687 32.6314 32.7088 34.1158L32.5997 34.2441L32.5712 34.0814C32.5464 33.9436 32.5179 33.8035 32.4844 33.6634C31.8532 31.008 29.7972 28.7315 26.413 26.8872C24.1275 25.645 22.8193 24.151 22.4759 22.4516C22.2539 21.3532 22.4188 20.2499 22.7375 19.3045C23.0562 18.3605 23.5299 17.5684 23.9329 17.0922L25.2498 15.5507C25.4805 15.2799 25.9133 15.2799 26.1439 15.5507L32.7646 23.3031H32.7634ZM34.8454 21.7628L26.0211 11.4311C25.8526 11.2339 25.5375 11.2339 25.3689 11.4311L16.5458 21.7628L16.5173 21.7973C14.8941 23.7271 13.9219 26.1794 13.9219 28.849C13.9219 35.0659 19.1934 40.1059 25.695 40.1059C32.1967 40.1059 37.4682 35.0659 37.4682 28.849C37.4682 26.1794 36.496 23.7271 34.8727 21.7984L34.8442 21.764L34.8454 21.7628ZM18.6577 23.2699L19.4464 22.3447L19.4699 22.5157C19.4885 22.6511 19.5121 22.7865 19.5394 22.923C20.0503 25.4894 21.8744 27.6282 24.9237 29.2848C27.575 30.7301 29.1188 32.3915 29.5627 34.2132C29.7488 34.9733 29.781 35.7214 29.7004 36.3758L29.6955 36.4161L29.657 36.434C28.4604 36.9933 27.1149 37.308 25.6938 37.308C20.7075 37.308 16.6649 33.4437 16.6649 28.6756C16.6649 26.6283 17.4102 24.7483 18.6552 23.2675L18.6577 23.2699Z" fill="white"/>
<defs>
<radialGradient id="paint0_radial_14221_74242" cx="0" cy="0" r="1" gradientUnits="userSpaceOnUse" gradientTransform="translate(-9.15554 36.8501) rotate(-177.953) scale(69.8591)">
<stop stop-color="#32F5FF"/>
<stop offset="0.393189" stop-color="#7E56CB"/>
<stop offset="0.690622" stop-color="#FF8447"/>
<stop offset="1" stop-color="#0052F2"/>
</radialGradient>
</defs>
</svg>
