<svg width="171" height="129" viewBox="0 0 171 129" fill="none" xmlns="http://www.w3.org/2000/svg">
<g clip-path="url(#clip0_14221_74080)">
<path d="M63.187 98.109L70.2447 124.449C70.7171 126.212 72.5322 127.251 74.3086 126.775L95.8913 120.992C97.1111 120.665 97.973 120.115 98.7641 119.129L169.734 31.9941C170.681 30.8186 170.968 29.535 170.581 28.0905L161.201 -6.916C160.728 -8.67908 158.913 -9.7181 157.137 -9.24218L135.554 -3.45892C134.334 -3.13208 133.472 -2.58241 132.681 -1.59643L72.3546 72.487C70.9307 74.2347 68.2809 74.3186 67.5318 71.4798L54.2103 21.7634C53.7379 20.0003 51.9228 18.9613 50.1464 19.4373L3.06453 32.0528C1.28838 32.5287 0.235756 34.3362 0.708173 36.0993L10.0881 71.1057C10.4752 72.5502 11.3684 73.529 12.773 74.0632L56.5002 90.7029C59.8066 91.9568 61.9917 93.648 63.187 98.109Z" fill="url(#paint0_linear_14221_74080)" fill-opacity="0.6"/>
</g>
<defs>
<linearGradient id="paint0_linear_14221_74080" x1="80.0993" y1="11.4" x2="108.555" y2="117.598" gradientUnits="userSpaceOnUse">
<stop stop-color="#124EFF"/>
<stop offset="1" stop-color="#061339"/>
</linearGradient>
<clipPath id="clip0_14221_74080">
<rect width="188" height="129" fill="white" transform="translate(0.328125)"/>
</clipPath>
</defs>
</svg>
