<svg width="47" height="46" viewBox="0 0 47 46" fill="none" xmlns="http://www.w3.org/2000/svg">
<path d="M2 22.9994C2 11.1245 11.6265 1.49805 23.5013 1.49805C35.3762 1.49805 45.0027 11.1245 45.0027 22.9994C45.0027 34.8743 35.3762 44.5007 23.5013 44.5007C11.6265 44.5007 2 34.8743 2 22.9994Z" fill="url(#paint0_radial_14221_74099)"/>
<path fill-rule="evenodd" clip-rule="evenodd" d="M30.2534 21.383C31.3394 22.6888 31.9889 24.3403 31.9889 26.1367C31.9889 27.9331 31.3197 29.6349 30.2052 30.9481L30.1086 31.0616L30.0834 30.9176C30.0615 30.7957 30.0363 30.6718 30.0066 30.5479C29.4482 28.1988 27.6295 26.185 24.6358 24.5535C22.614 23.4547 21.4568 22.1331 21.1529 20.6297C20.9566 19.658 21.1024 18.6821 21.3843 17.8458C21.6663 17.0107 22.0853 16.31 22.4418 15.8887L23.6068 14.5251C23.8109 14.2856 24.1937 14.2856 24.3977 14.5251L30.2545 21.383H30.2534ZM32.0952 20.0204L24.2891 10.8808C24.14 10.7064 23.8613 10.7064 23.7122 10.8808L15.9071 20.0204L15.8819 20.0509C14.446 21.758 13.5859 23.9274 13.5859 26.289C13.5859 31.7885 18.2492 36.247 24.0007 36.247C29.7521 36.247 34.4154 31.7885 34.4154 26.289C34.4154 23.9274 33.5553 21.758 32.1194 20.0519L32.0941 20.0215L32.0952 20.0204ZM17.7753 21.3536L18.473 20.5352L18.4938 20.6865C18.5103 20.8062 18.5311 20.926 18.5552 21.0468C19.0072 23.317 20.6209 25.209 23.3183 26.6745C25.6637 27.953 27.0294 29.4228 27.4221 31.0343C27.5866 31.7066 27.6152 32.3684 27.5439 32.9473L27.5395 32.983L27.5055 32.9988C26.4469 33.4935 25.2567 33.7719 23.9995 33.7719C19.5886 33.7719 16.0125 30.3535 16.0125 26.1356C16.0125 24.3245 16.6717 22.6615 17.7731 21.3515L17.7753 21.3536Z" fill="white"/>
<defs>
<radialGradient id="paint0_radial_14221_74099" cx="0" cy="0" r="1" gradientUnits="userSpaceOnUse" gradientTransform="translate(-7.59883 32.5982) rotate(-177.953) scale(61.7985)">
<stop stop-color="#32F5FF"/>
<stop offset="0.393189" stop-color="#7E56CB"/>
<stop offset="0.690622" stop-color="#FF8447"/>
<stop offset="1" stop-color="#0052F2"/>
</radialGradient>
</defs>
</svg>
