<svg width="60" height="60" viewBox="0 0 60 60" fill="none" xmlns="http://www.w3.org/2000/svg">
<path d="M38.2485 34.7498C38.2485 30.3749 35.6235 28.8749 30.3735 28.25C26.6235 27.7499 25.8735 26.75 25.8735 24.9998C25.8735 23.2496 27.1236 22.1249 29.6235 22.1249C31.8735 22.1249 33.1236 22.8749 33.7485 24.7499C33.8736 25.1249 34.2486 25.3748 34.6236 25.3748H36.6234C37.1235 25.3748 37.4985 24.9998 37.4985 24.5V24.3749C36.9984 21.6248 34.7484 19.4999 31.8735 19.25V16.25C31.8735 15.7499 31.4985 15.3749 30.8736 15.2498H28.9986C28.4985 15.2498 28.1235 15.6248 27.9984 16.25V19.1249C24.2484 19.625 21.8736 22.1249 21.8736 25.25C21.8736 29.375 24.3735 30.9998 29.6235 31.625C33.1236 32.2499 34.2486 32.9999 34.2486 35C34.2486 37.0001 32.4984 38.375 30.1236 38.375C26.8734 38.375 25.7484 36.9998 25.3734 35.1248C25.2486 34.625 24.8736 34.3748 24.4986 34.3748H22.3734C21.8736 34.3748 21.4986 34.7498 21.4986 35.2499V35.375C21.9984 38.4998 23.9985 40.7498 28.1235 41.375V44.375C28.1235 44.8748 28.4985 45.2498 29.1234 45.3749H30.9984C31.4985 45.3749 31.8735 44.9999 31.9986 44.375V41.375C35.7486 40.7498 38.2485 38.1248 38.2485 34.7498Z" fill="white"/>
<path d="M23.6235 47.8748C13.8735 44.375 8.87343 33.5 12.4986 23.8748C14.3736 18.6248 18.4986 14.6249 23.6235 12.7499C24.1236 12.5 24.3735 12.125 24.3735 11.4998V9.7499C24.3735 9.2498 24.1236 8.8748 23.6235 8.75C23.4984 8.75 23.2485 8.75 23.1234 8.8748C11.2485 12.6248 4.74843 25.25 8.49843 37.1249C10.7484 44.1248 16.1235 49.4999 23.1234 51.7499C23.6235 51.9998 24.1236 51.7499 24.2484 51.2498C24.3735 51.125 24.3735 50.9999 24.3735 50.75V48.9998C24.3735 48.6248 23.9985 48.125 23.6235 47.8748ZM36.8736 8.8748C36.3735 8.6249 35.8734 8.8748 35.7486 9.3749C35.6235 9.5 35.6235 9.6248 35.6235 9.875V11.6249C35.6235 12.125 35.9985 12.6248 36.3735 12.875C46.1235 16.3748 51.1236 27.2498 47.4984 36.875C45.6234 42.125 41.4984 46.1249 36.3735 47.9999C35.8734 48.2498 35.6235 48.6248 35.6235 49.25V50.9999C35.6235 51.5 35.8734 51.875 36.3735 51.9998C36.4986 51.9998 36.7485 51.9998 36.8736 51.875C48.7485 48.125 55.2486 35.4998 51.4986 23.6249C49.2486 16.4999 43.7484 11.1248 36.8736 8.8748Z" fill="white"/>
<path d="M0 30C0 13.4315 13.4315 0 30 0C46.5685 0 60 13.4315 60 30C60 46.5685 46.5685 60 30 60C13.4315 60 0 46.5685 0 30Z" fill="url(#paint0_radial_14222_74413)"/>
<path fill-rule="evenodd" clip-rule="evenodd" d="M38.7243 27.0467C40.2395 28.8687 41.1457 31.1729 41.1457 33.6794C41.1457 36.1858 40.212 38.5604 38.6569 40.3925L38.5222 40.5509L38.487 40.35C38.4564 40.18 38.4212 40.0071 38.3799 39.8341C37.6008 36.5566 35.0632 33.7468 30.8862 31.4704C28.0653 29.9373 26.4506 28.0933 26.0267 25.9958C25.7527 24.64 25.9562 23.2783 26.3496 22.1114C26.743 20.9462 27.3276 19.9685 27.8251 19.3808L29.4505 17.4782C29.7352 17.144 30.2694 17.144 30.554 17.4782L38.7258 27.0467H38.7243ZM41.2941 25.1456L30.4025 12.3934C30.1944 12.1501 29.8056 12.1501 29.5975 12.3934L18.7074 25.1456L18.6722 25.1882C16.6687 27.57 15.4688 30.5969 15.4688 33.8919C15.4688 41.5652 21.9752 47.7859 30 47.7859C38.0248 47.7859 44.5312 41.5652 44.5312 33.8919C44.5312 30.5969 43.3313 27.57 41.3278 25.1896L41.2925 25.1471L41.2941 25.1456ZM21.314 27.0057L22.2875 25.8638L22.3165 26.0749C22.3395 26.242 22.3686 26.4091 22.4022 26.5776C23.0328 29.7452 25.2843 32.3851 29.048 34.4298C32.3204 36.2137 34.2259 38.2643 34.7738 40.5128C35.0034 41.4509 35.0432 42.3743 34.9437 43.182L34.9376 43.2318L34.8902 43.2538C33.4132 43.9441 31.7525 44.3325 29.9984 44.3325C23.844 44.3325 18.8544 39.563 18.8544 33.6779C18.8544 31.1509 19.7743 28.8306 21.3109 27.0027L21.314 27.0057Z" fill="white"/>
<path d="M29.2256 59.9902C13.2723 59.586 0.413999 46.7277 0.00976818 30.7744L2.62268e-06 30C4.07115e-06 13.4315 13.4315 -2.56454e-07 30 -2.62268e-06L30.7744 0.00976307C46.9851 0.420516 60 13.6904 60 30L59.9902 30.7744C59.5795 46.9851 46.3096 60 30 60L29.2256 59.9902ZM30 54.8867C30.6462 54.8867 31.2867 54.8621 31.9205 54.8137C35.756 54.5208 36.3047 48.8018 36.3047 44.9551C36.3047 40.1787 40.1768 36.3066 44.9531 36.3066C48.8002 36.3067 54.52 35.7591 54.8134 31.9232C54.862 31.2885 54.8867 30.6471 54.8867 30C54.8867 16.2556 43.7444 5.11328 30 5.11328C16.2556 5.11328 5.11329 16.2556 5.11328 30C5.11328 43.7444 16.2556 54.8867 30 54.8867Z" fill="#0E252D"/>
<path d="M51.1386 44.6634C51.1386 48.0975 48.3468 50.8807 44.9127 50.8807C41.4786 50.8807 38.6953 48.0975 38.6953 44.6634C38.6953 41.2293 41.4786 38.4375 44.9127 38.4375C45.8375 38.4375 46.7111 38.6345 47.4989 39.0113L47.1735 40.2273C46.3514 43.3103 46.497 43.1647 43.414 43.9869L41.1788 44.5863L41.2131 44.7148C44.0648 45.7424 43.825 45.5112 44.8527 48.363L44.9897 48.3972L45.5892 46.1535C46.4113 43.0791 46.2657 43.2247 49.3402 42.4026L50.5733 42.0686C50.933 42.8564 51.1386 43.7385 51.1386 44.6634Z" fill="#17B69B"/>
<path d="M51.4781 44.6634C51.4781 48.2386 48.5715 51.1363 44.9963 51.1363C41.4211 51.1363 38.5234 48.2386 38.5234 44.6634C38.5234 41.0882 41.4211 38.1816 44.9963 38.1816C45.9592 38.1816 46.8686 38.3867 47.6889 38.779L47.3501 40.045C46.4941 43.2547 46.6457 43.1031 43.436 43.9591L41.109 44.5832L41.1447 44.7169C44.1136 45.7868 43.864 45.5461 44.9339 48.515L45.0765 48.5507L45.7006 46.2148C46.5565 43.014 46.405 43.1656 49.6057 42.3096L50.8896 41.9619C51.2641 42.7822 51.4781 43.7005 51.4781 44.6634Z" fill="#1785B7"/>
<defs>
<radialGradient id="paint0_radial_14222_74413" cx="0" cy="0" r="1" gradientUnits="userSpaceOnUse" gradientTransform="translate(-13.3929 43.3929) rotate(-177.953) scale(86.2251)">
<stop stop-color="#32F5FF"/>
<stop offset="0.393189" stop-color="#7E56CB"/>
<stop offset="0.690622" stop-color="#FF8447"/>
<stop offset="1" stop-color="#0052F2"/>
</radialGradient>
</defs>
</svg>
