<svg width="17" height="16" viewBox="0 0 17 16" fill="none" xmlns="http://www.w3.org/2000/svg">
<g opacity="0.56">
<path fill-rule="evenodd" clip-rule="evenodd" d="M3.16667 9.33333C3.53486 9.33333 3.83333 9.63181 3.83333 10V12C3.83333 12.3682 4.13181 12.6667 4.5 12.6667H12.5C12.8682 12.6667 13.1667 12.3682 13.1667 12V10C13.1667 9.63181 13.4651 9.33333 13.8333 9.33333C14.2015 9.33333 14.5 9.63181 14.5 10V12C14.5 13.1046 13.6046 14 12.5 14H4.5C3.39543 14 2.5 13.1046 2.5 12V10C2.5 9.63181 2.79848 9.33333 3.16667 9.33333Z" fill="#FCFCFC"/>
<path fill-rule="evenodd" clip-rule="evenodd" d="M8.49999 10.3333C8.6768 10.3333 8.84637 10.2631 8.9714 10.1381L11.3047 7.80474C11.5651 7.54439 11.5651 7.12228 11.3047 6.86193C11.0444 6.60158 10.6223 6.60158 10.3619 6.86193L9.16666 8.05719V2.66667C9.16666 2.29848 8.86818 2 8.49999 2C8.1318 2 7.83333 2.29848 7.83333 2.66667V8.05719L6.63807 6.86193C6.37772 6.60158 5.95561 6.60158 5.69526 6.86193C5.43491 7.12228 5.43491 7.54439 5.69526 7.80474L8.02859 10.1381C8.15361 10.2631 8.32318 10.3333 8.49999 10.3333Z" fill="#FCFCFC"/>
</g>
</svg>
