<svg width="17" height="16" viewBox="0 0 17 16" fill="none" xmlns="http://www.w3.org/2000/svg">
<g id="calculator" opacity="0.56">
<path id="vector" fill-rule="evenodd" clip-rule="evenodd" d="M5.16699 1.33398C4.06242 1.33398 3.16699 2.22941 3.16699 3.33398V12.6673C3.16699 13.7719 4.06242 14.6673 5.16699 14.6673H11.8337C12.9382 14.6673 13.8337 13.7719 13.8337 12.6673V3.33398C13.8337 2.22941 12.9382 1.33398 11.8337 1.33398H5.16699ZM12.5003 4.66732V3.33398C12.5003 2.96579 12.2018 2.66732 11.8337 2.66732H5.16699C4.7988 2.66732 4.50033 2.96579 4.50033 3.33398V4.66732H12.5003ZM7.00033 9.00065C7.46056 9.00065 7.83366 8.62755 7.83366 8.16732C7.83366 7.70708 7.46056 7.33398 7.00033 7.33398C6.54009 7.33398 6.16699 7.70708 6.16699 8.16732C6.16699 8.62755 6.54009 9.00065 7.00033 9.00065ZM7.00033 12.0007C7.46056 12.0007 7.83366 11.6276 7.83366 11.1673C7.83366 10.7071 7.46056 10.334 7.00033 10.334C6.54009 10.334 6.16699 10.7071 6.16699 11.1673C6.16699 11.6276 6.54009 12.0007 7.00033 12.0007ZM10.8337 8.16732C10.8337 8.62755 10.4606 9.00065 10.0003 9.00065C9.54009 9.00065 9.16699 8.62755 9.16699 8.16732C9.16699 7.70708 9.54009 7.33398 10.0003 7.33398C10.4606 7.33398 10.8337 7.70708 10.8337 8.16732ZM10.0003 12.0007C10.4606 12.0007 10.8337 11.6276 10.8337 11.1673C10.8337 10.7071 10.4606 10.334 10.0003 10.334C9.54009 10.334 9.16699 10.7071 9.16699 11.1673C9.16699 11.6276 9.54009 12.0007 10.0003 12.0007Z" fill="#FCFCFC"/>
</g>
</svg>
