<svg width="18" height="18" viewBox="0 0 18 18" fill="none" xmlns="http://www.w3.org/2000/svg">
<path d="M14.5428 3.43834C15.3108 4.20634 15.8838 5.07034 16.2618 6.03034C16.6398 6.99034 16.8288 7.97434 16.8288 8.98234C16.8288 9.99034 16.6398 10.9743 16.2618 11.9343C15.8838 12.8943 15.3108 13.7583 14.5428 14.5263C13.7748 15.2943 12.9108 15.8703 11.9508 16.2543C10.9908 16.6383 10.0068 16.8303 8.99881 16.8303C7.99081 16.8303 7.00381 16.6383 6.03781 16.2543C5.07181 15.8703 4.20481 15.2943 3.43681 14.5263C2.66881 13.7583 2.09281 12.8943 1.70881 11.9343C1.32481 10.9743 1.13281 9.99034 1.13281 8.98234C1.13281 7.97434 1.32481 6.99034 1.70881 6.03034C2.09281 5.07034 2.66881 4.20634 3.43681 3.43834C4.20481 2.67034 5.07181 2.09734 6.03781 1.71934C7.00381 1.34134 7.99081 1.15234 8.99881 1.15234C10.0068 1.15234 10.9908 1.34134 11.9508 1.71934C12.9108 2.09734 13.7748 2.67034 14.5428 3.43834ZM12.6708 12.5823C12.9228 12.3303 13.0338 12.0423 13.0038 11.7183C12.9738 11.3943 12.8328 11.1063 12.5808 10.8543L10.6908 8.96434L12.5808 7.07434C12.8328 6.82234 12.9738 6.53434 13.0038 6.21034C13.0338 5.88634 12.9228 5.59834 12.6708 5.34634C12.4188 5.09434 12.1158 4.96834 11.7618 4.96834C11.4078 4.96834 11.1048 5.09434 10.8528 5.34634L8.96281 7.21834L7.12681 5.38234C6.87481 5.14234 6.58681 5.00734 6.26281 4.97734C5.93881 4.94734 5.65081 5.05234 5.39881 5.29234C5.14681 5.54434 5.02081 5.85034 5.02081 6.21034C5.02081 6.57034 5.14681 6.87634 5.39881 7.12834L7.23481 8.96434L5.39881 10.8003C5.14681 11.0523 5.02081 11.3553 5.02081 11.7093C5.02081 12.0633 5.14681 12.3663 5.39881 12.6183C5.65081 12.8703 5.93881 12.9813 6.26281 12.9513C6.58681 12.9213 6.87481 12.7803 7.12681 12.5283L8.96281 10.6923L10.8528 12.5823C11.1048 12.8343 11.4078 12.9603 11.7618 12.9603C12.1158 12.9603 12.4188 12.8343 12.6708 12.5823Z" fill="white"/>
</svg>
