<svg width="17" height="16" viewBox="0 0 17 16" fill="none" xmlns="http://www.w3.org/2000/svg">
<g opacity="0.56">
<path fill-rule="evenodd" clip-rule="evenodd" d="M1.8335 8.00065C1.8335 4.31875 4.81826 1.33398 8.50016 1.33398C12.1821 1.33398 15.1668 4.31875 15.1668 8.00065C15.1668 11.6826 12.1821 14.6673 8.50016 14.6673C4.81826 14.6673 1.8335 11.6826 1.8335 8.00065ZM8.50016 3.66732C8.86835 3.66732 9.16683 3.96579 9.16683 4.33398V4.74976C9.70286 4.88539 10.1758 5.1837 10.4841 5.61002C10.6998 5.90838 10.6329 6.32514 10.3345 6.54088C10.0361 6.75662 9.61937 6.68965 9.40363 6.39128C9.25879 6.19098 8.93578 6.00065 8.50016 6.00065H8.31498C7.71846 6.00065 7.50016 6.36393 7.50016 6.51917V6.57005C7.50016 6.70156 7.59958 6.9224 7.93519 7.05664L9.56032 7.70669C10.2716 7.99121 10.8335 8.62638 10.8335 9.43125C10.8335 10.4133 10.0488 11.0769 9.16683 11.2734V11.6673C9.16683 12.0355 8.86835 12.334 8.50016 12.334C8.13197 12.334 7.8335 12.0355 7.8335 11.6673V11.2515C7.29746 11.1159 6.8245 10.8176 6.51624 10.3913C6.30049 10.0929 6.36747 9.67616 6.66583 9.46042C6.96419 9.24468 7.38096 9.31166 7.5967 9.61002C7.74154 9.81033 8.06455 10.0007 8.50016 10.0007H8.62175C9.25339 10.0007 9.50016 9.61459 9.50016 9.43125C9.50016 9.29974 9.40074 9.07891 9.06513 8.94466L7.44 8.29461C6.72871 8.01009 6.16683 7.37492 6.16683 6.57005V6.51917C6.16683 5.54317 6.95974 4.89335 7.8335 4.71619V4.33398C7.8335 3.96579 8.13197 3.66732 8.50016 3.66732Z" fill="#FCFCFC"/>
</g>
</svg>
