<svg width="16" height="16" viewBox="0 0 16 16" fill="none" xmlns="http://www.w3.org/2000/svg">
<path fill-rule="evenodd" clip-rule="evenodd" d="M14.6654 2.83398C14.6654 2.00556 13.9938 1.33398 13.1654 1.33398H6.83203C6.0036 1.33398 5.33203 2.00556 5.33203 2.83398V5.33398H2.83203C2.0036 5.33398 1.33203 6.00556 1.33203 6.83398V13.1673C1.33203 13.9957 2.0036 14.6673 2.83203 14.6673H9.16536C9.99379 14.6673 10.6654 13.9957 10.6654 13.1673V10.6673H13.1654C13.9938 10.6673 14.6654 9.99574 14.6654 9.16732V2.83398ZM10.6654 9.33398H13.1654C13.2574 9.33398 13.332 9.25937 13.332 9.16732V2.83398C13.332 2.74194 13.2574 2.66732 13.1654 2.66732H6.83203C6.73998 2.66732 6.66536 2.74194 6.66536 2.83398V5.33398H9.16536C9.99379 5.33398 10.6654 6.00556 10.6654 6.83398V9.33398Z" fill="#FCFCFC" fill-opacity="0.4"/>
</svg>
