<svg width="36" height="36" viewBox="0 0 36 36" fill="none" xmlns="http://www.w3.org/2000/svg">
<path d="M18.375 3.375L18.675 3.3765C19.7505 3.38486 20.8248 3.44744 21.894 3.564L22.4055 3.624L22.947 3.699L23.4788 3.78375L23.745 3.83025L24.2685 3.93C28.6702 4.82025 31.7542 6.7245 31.8713 9.22725L31.875 9.375V25.125C31.875 27.7005 28.7565 29.6625 24.2685 30.57L23.745 30.6697L23.4788 30.7162L22.947 30.8003L22.4055 30.8752C21.1305 31.0387 19.7767 31.125 18.375 31.125C16.9733 31.125 15.6195 31.0387 14.3445 30.8752L13.803 30.8003L13.2713 30.7162C8.45175 29.901 5.00025 27.9218 4.87875 25.2705L4.875 25.125V9.375L4.87875 9.22725C4.99575 6.7245 8.07975 4.82025 12.4815 3.93L13.005 3.83025L13.2713 3.78375L13.803 3.69975L14.3445 3.62475C15.4834 3.48049 16.6294 3.39887 17.7772 3.38025L18.375 3.375ZM23.4788 22.4662L22.947 22.5502L22.4055 22.6252C21.1305 22.7887 19.7767 22.875 18.375 22.875C16.9733 22.875 15.6195 22.7887 14.3445 22.6252L13.803 22.5502L13.2713 22.4662C10.758 22.041 8.616 21.2993 7.125 20.3108V25.125C7.125 25.8615 7.97475 26.6287 9.4125 27.276L9.75525 27.423C10.284 27.6405 10.8802 27.8423 11.5342 28.0215L11.979 28.1378C12.4312 28.2502 12.909 28.3538 13.4062 28.4437L13.9118 28.53L14.43 28.6073C14.7803 28.656 15.1387 28.6987 15.5047 28.7347L16.059 28.7843L16.6237 28.8232L17.199 28.8517C17.9827 28.8828 18.7673 28.8828 19.551 28.8517L20.1262 28.8232L20.691 28.7843L21.246 28.7347C21.6112 28.6987 21.9697 28.656 22.32 28.6073L22.8382 28.53L23.3438 28.4437C23.8417 28.3538 24.3188 28.251 24.771 28.1378L25.2157 28.0215C25.8697 27.8415 26.466 27.6405 26.9947 27.423L27.3375 27.276C28.7197 26.6535 29.559 25.9207 29.6213 25.2097L29.625 25.125V20.31C28.1348 21.2992 25.9928 22.041 23.4788 22.4662ZM29.625 12.81C28.2083 13.7497 26.205 14.466 23.8522 14.9003L23.4773 14.9662L22.9463 15.0503L22.4047 15.1252C21.1297 15.2888 19.776 15.375 18.3742 15.375C17.1727 15.375 16.0065 15.312 14.8942 15.1905L14.3437 15.1252L13.8022 15.0503L13.2705 14.9662C10.7572 14.541 8.61525 13.7992 7.12425 12.8107V16.875C7.12425 17.6115 7.974 18.3788 9.41175 19.026L9.7545 19.173C10.2832 19.3905 10.8795 19.5923 11.5335 19.7715L11.9782 19.8877C12.4305 20.0002 12.9082 20.1038 13.4055 20.1938L13.911 20.28L14.4292 20.3573C14.7795 20.406 15.138 20.4487 15.504 20.4847L16.0582 20.5343L16.623 20.5732L17.1983 20.6017C17.9819 20.6328 18.7666 20.6328 19.5502 20.6017L20.1255 20.5732L20.6902 20.5343L21.2452 20.4847C21.6105 20.4487 21.969 20.406 22.3192 20.3573L22.8375 20.28L23.343 20.1938C23.841 20.1038 24.318 20.001 24.7702 19.8877L25.215 19.7715C25.869 19.5915 26.4653 19.3905 26.994 19.173L27.3368 19.026C28.719 18.4035 29.5583 17.6708 29.6205 16.9598L29.6242 16.875V12.81H29.625ZM18.375 5.625L18.078 5.6265L17.6355 5.634L17.199 5.64825L16.6237 5.67675L16.059 5.71575L15.504 5.76525C15.2603 5.78925 15.0202 5.81625 14.7832 5.84625L14.4307 5.89275L13.9118 5.97L13.4062 6.05625C13.0328 6.12375 12.6712 6.19875 12.3225 6.279L11.979 6.3615L11.5342 6.4785C10.9897 6.6285 10.4842 6.7935 10.0252 6.96975L9.75525 7.077L9.4125 7.224C7.97475 7.87125 7.125 8.6385 7.125 9.375C7.125 10.08 7.90275 10.812 9.22875 11.4412L9.4125 11.526L9.75525 11.673C10.1955 11.8545 10.683 12.0247 11.2125 12.18L11.535 12.2715L11.979 12.3878C12.318 12.4725 12.6713 12.5513 13.0365 12.624L13.4062 12.6938L13.9118 12.78L14.43 12.8573C14.6633 12.8903 14.9003 12.9195 15.141 12.9473L15.5047 12.9847L16.059 13.0343L16.6237 13.0732L17.199 13.1017C17.8534 13.1276 18.5085 13.1319 19.1632 13.1145L19.551 13.1017L20.1262 13.0732L20.691 13.0343L21.246 12.9847C21.4897 12.9607 21.7297 12.9338 21.9667 12.9038L22.3192 12.8573L22.8382 12.78L23.3438 12.6938C23.7172 12.6263 24.0787 12.5512 24.4275 12.471L24.771 12.3885L25.2157 12.2715C25.7602 12.1215 26.2657 11.9565 26.7247 11.7803L26.9947 11.673L27.3375 11.526C28.7752 10.8788 29.625 10.1115 29.625 9.375C29.625 8.67 28.8472 7.938 27.5212 7.30875L27.3375 7.224L26.9947 7.077C26.5181 6.88298 26.0317 6.71376 25.5375 6.57L25.215 6.4785L24.771 6.36225C24.4205 6.2748 24.0679 6.19603 23.7135 6.126L23.3438 6.05625L22.8382 5.97L22.32 5.89275C22.0834 5.8596 21.8464 5.82959 21.609 5.80275L21.2452 5.76525L20.691 5.71575L20.1262 5.67675L19.551 5.64825C19.2937 5.63775 19.0335 5.631 18.771 5.62725L18.375 5.625Z" fill="white" fill-opacity="0.2"/>
</svg>
