<svg width="14" height="14" viewBox="0 0 14 14" fill="none" xmlns="http://www.w3.org/2000/svg">
<g clip-path="url(#clip0_12193_18452)">
<path d="M11.3118 2.67448C11.9092 3.27182 12.3548 3.94382 12.6488 4.69048C12.9428 5.43715 13.0898 6.20248 13.0898 6.98648C13.0898 7.77048 12.9428 8.53582 12.6488 9.28248C12.3548 10.0292 11.9092 10.7011 11.3118 11.2985C10.7145 11.8958 10.0425 12.3438 9.29583 12.6425C8.54917 12.9411 7.78384 13.0905 6.99984 13.0905C6.21584 13.0905 5.44817 12.9411 4.69684 12.6425C3.9455 12.3438 3.27117 11.8958 2.67384 11.2985C2.0765 10.7011 1.6285 10.0292 1.32984 9.28248C1.03117 8.53582 0.881836 7.77048 0.881836 6.98648C0.881836 6.20248 1.03117 5.43715 1.32984 4.69048C1.6285 3.94382 2.0765 3.27182 2.67384 2.67448C3.27117 2.07715 3.9455 1.63148 4.69684 1.33748C5.44817 1.04348 6.21584 0.896484 6.99984 0.896484C7.78384 0.896484 8.54917 1.04348 9.29583 1.33748C10.0425 1.63148 10.7145 2.07715 11.3118 2.67448ZM9.85583 9.78648C10.0518 9.59048 10.1382 9.36648 10.1148 9.11448C10.0915 8.86248 9.98184 8.63848 9.78584 8.44248L8.31583 6.97248L9.78584 5.50248C9.98184 5.30648 10.0915 5.08248 10.1148 4.83048C10.1382 4.57848 10.0518 4.35448 9.85583 4.15848C9.65983 3.96248 9.42417 3.86448 9.14884 3.86448C8.8735 3.86448 8.63784 3.96248 8.44183 4.15848L6.97184 5.61448L5.54384 4.18648C5.34784 3.99982 5.12384 3.89482 4.87184 3.87148C4.61984 3.84815 4.39584 3.92982 4.19984 4.11648C4.00384 4.31248 3.90584 4.55048 3.90584 4.83048C3.90584 5.11048 4.00384 5.34848 4.19984 5.54448L5.62784 6.97248L4.19984 8.40048C4.00384 8.59648 3.90584 8.83215 3.90584 9.10748C3.90584 9.38282 4.00384 9.61848 4.19984 9.81448C4.39584 10.0105 4.61984 10.0968 4.87184 10.0735C5.12384 10.0501 5.34784 9.94048 5.54384 9.74448L6.97184 8.31648L8.44183 9.78648C8.63784 9.98248 8.8735 10.0805 9.14884 10.0805C9.42417 10.0805 9.65983 9.98248 9.85583 9.78648Z" fill="white"/>
</g>
<defs>
<clipPath id="clip0_12193_18452">
<rect width="14" height="14" fill="white"/>
</clipPath>
</defs>
</svg>
