<svg width="16" height="16" viewBox="0 0 16 16" fill="none" xmlns="http://www.w3.org/2000/svg">
<path fill-rule="evenodd" clip-rule="evenodd" d="M3.33398 2C2.22942 2 1.33398 2.89543 1.33398 4V11.7062C1.33398 12.6048 2.0625 13.3333 2.96116 13.3333H12.0204C12.0237 13.3333 12.0274 13.3333 12.0306 13.3333C12.043 13.3332 12.0554 13.3331 12.0677 13.3328C12.9231 13.3129 13.6735 12.7499 13.9298 11.9299L15.0336 8.3977C15.2774 7.6176 14.7701 6.82605 14.0007 6.68786V6C14.0007 4.89543 13.1052 4 12.0007 4H8.35744L7.61784 2.8906C7.24691 2.3342 6.62245 2 5.95374 2H3.33398ZM12.6673 6.66667V6C12.6673 5.63181 12.3688 5.33333 12.0007 5.33333H8.35744C7.91164 5.33333 7.49533 5.11053 7.24804 4.7396L6.50844 3.6302C6.3848 3.44473 6.17664 3.33333 5.95374 3.33333H3.33398C2.96579 3.33333 2.66732 3.63181 2.66732 4V11.7062C2.66732 11.8684 2.79888 12 2.96116 12C3.08968 12 3.20329 11.9165 3.24163 11.7938L4.40528 8.07012C4.6662 7.23516 5.43947 6.66667 6.31424 6.66667H12.6673Z" fill="#FCFCFC"/>
</svg>
