<svg width="17" height="16" viewBox="0 0 17 16" fill="none" xmlns="http://www.w3.org/2000/svg">
<path fill-rule="evenodd" clip-rule="evenodd" d="M5.60123 1.59946C5.39049 1.31982 4.99932 1.25088 4.70567 1.44163C3.93003 1.94546 3.36567 2.58315 3.22231 3.39025C3.16363 3.72066 3.181 4.04844 3.26008 4.37096C3.10523 4.31813 2.94401 4.27266 2.77755 4.23391C2.43572 4.15433 2.09072 4.35342 1.98859 4.68921C1.72 5.57221 1.70101 6.42212 2.11361 7.13159C2.21548 7.30676 2.33793 7.4635 2.4782 7.6034C2.31237 7.63487 2.14451 7.67658 1.97535 7.72729C1.63737 7.82861 1.43687 8.17574 1.51798 8.51913C1.73023 9.41774 2.14167 10.1614 2.85387 10.5696C3.1007 10.7111 3.36447 10.8013 3.6408 10.8476C3.51964 10.9426 3.40045 11.0479 3.28375 11.1637C3.02691 11.4187 3.0204 11.832 3.26909 12.0949C3.84147 12.7001 4.48828 13.1158 5.21451 13.1928C5.78079 13.2528 6.31332 13.0987 6.80269 12.7944C6.7435 12.9783 6.58136 13.2034 6.17822 13.4036C5.84842 13.5673 5.71378 13.9673 5.87748 14.2971C6.04118 14.6269 6.44124 14.7615 6.77104 14.5978C7.58562 14.1935 8.06871 13.5621 8.15365 12.8258C8.31255 11.4486 7.07281 10.2905 5.76919 10.1704C5.7846 10.0834 5.78289 9.9921 5.76138 9.90105C5.59851 9.21152 5.31836 8.6132 4.87505 8.18768C4.91362 8.13207 4.94427 8.06967 4.96496 8.00166C5.20333 7.218 5.2451 6.46041 4.96306 5.80392C5.67571 5.31328 6.18894 4.70094 6.32468 3.93669C6.46813 3.12907 6.15717 2.33713 5.60123 1.59946Z" fill="#FCFCFC"/>
<path fill-rule="evenodd" clip-rule="evenodd" d="M12.2946 1.44163C12.0009 1.25088 11.6098 1.31982 11.399 1.59946C10.8431 2.33713 10.5321 3.12907 10.6756 3.93669C10.8113 4.70094 11.3245 5.31328 12.0372 5.80392C11.7552 6.46041 11.7969 7.218 12.0353 8.00166C12.056 8.06967 12.0866 8.13207 12.1252 8.18768C11.6819 8.6132 11.4017 9.21152 11.2389 9.90105C11.2174 9.9921 11.2157 10.0834 11.2311 10.1704C9.92744 10.2905 8.68771 11.4486 8.8466 12.8258C8.93155 13.5621 9.41463 14.1935 10.2292 14.5978C10.559 14.7615 10.9591 14.6269 11.1228 14.2971C11.2865 13.9673 11.1518 13.5673 10.822 13.4036C10.4189 13.2034 10.2568 12.9783 10.1976 12.7944C10.6869 13.0987 11.2195 13.2528 11.7857 13.1928C12.512 13.1158 13.1588 12.7001 13.7312 12.0949C13.9799 11.832 13.9733 11.4187 13.7165 11.1637C13.5998 11.0479 13.4806 10.9426 13.3595 10.8476C13.6358 10.8013 13.8996 10.7111 14.1464 10.5696C14.8586 10.1614 15.27 9.41774 15.4823 8.51913C15.5634 8.17574 15.3629 7.82861 15.0249 7.72729C14.8557 7.67658 14.6879 7.63487 14.5221 7.6034C14.6623 7.4635 14.7848 7.30676 14.8866 7.13159C15.2992 6.42212 15.2803 5.57221 15.0117 4.68921C14.9095 4.35342 14.5645 4.15433 14.2227 4.23391C14.0562 4.27266 13.895 4.31813 13.7402 4.37096C13.8193 4.04844 13.8366 3.72066 13.7779 3.39025C13.6346 2.58315 13.0702 1.94546 12.2946 1.44163Z" fill="#FCFCFC"/>
</svg>
