<svg width="104" height="32" viewBox="0 0 104 32" fill="none" xmlns="http://www.w3.org/2000/svg">
<path d="M39.4498 9.45177L39.5699 21.6221C39.5835 22.984 39.566 22.9608 40.8388 23.4451L42.4759 24.0709V24.4118H36.1641V24.0709L36.5341 23.8965C38.4501 22.9937 38.3997 23.0731 38.4211 20.9556L38.545 9.29485C38.5586 8.11695 38.6128 8.29519 37.9328 7.33234L36.8479 5.79603V5.45312H40.6083L50.6262 19.4155L50.4848 8.22544C50.4674 6.85769 50.4848 6.879 49.2004 6.40242L47.5749 5.79603V5.45312H53.8868V5.79603L53.5245 5.96845C51.624 6.87319 51.6782 6.78988 51.6491 8.89382L51.4418 24.4118H50.1535L39.4517 9.45177H39.4498Z" fill="#FCFCFC"/>
<path d="M61.5203 22.5987C63.572 22.5987 65.1238 21.1534 65.9123 19.1018L66.2552 19.1812C65.7573 22.4418 63.572 24.6774 60.4451 24.6774C56.0532 24.6774 53.7148 21.1805 53.7148 17.5791C53.7148 13.9776 55.7917 10.5059 60.077 10.5059C63.8103 10.5059 66.1506 12.821 66.0983 16.6588H56.9231V16.7906C56.9231 20.4715 58.9999 22.6006 61.5242 22.6006L61.5203 22.5987ZM61.4351 16.0001C62.8765 16.0001 63.0566 15.7773 62.7564 14.3689C62.3728 12.5807 61.501 11.1626 60.0751 11.1626C58.1823 11.1626 57.1284 13.5552 56.9444 16.0021H61.4351V16.0001Z" fill="#FCFCFC"/>
<path d="M67.3748 24.071C69.2462 23.0927 69.1881 23.1895 69.1881 21.0779V14.8687C69.1881 12.9139 69.1959 12.9256 67.3477 12.2921V11.9492L72.2394 10.5039V13.9756C72.871 11.9511 74.3705 10.5039 76.2613 10.5039C78.2858 10.5039 79.7582 11.7399 80.1263 13.9233C80.9167 11.7922 82.4918 10.5039 84.2276 10.5039C86.6202 10.5039 88.2495 12.2126 88.2495 15.0799V21.1457C88.2495 23.1915 88.1914 23.0946 89.9989 24.0536L90.0377 24.073V24.4139H83.5166V24.073C85.237 23.0888 85.173 23.1992 85.173 21.2173V15.0547C85.173 13.2142 84.3051 12.3986 83.042 12.3986C81.6219 12.3986 80.229 13.5823 80.229 15.632V21.2173C80.229 23.1992 80.165 23.0888 81.8854 24.073V24.4139H75.5232V24.073C77.2435 23.0888 77.1796 23.1992 77.1796 21.2173V15.0547C77.1796 13.2142 76.3097 12.3986 75.0485 12.3986C73.6808 12.3986 72.2355 13.5823 72.2355 15.632V21.2173C72.2355 23.1992 72.1716 23.0888 73.892 24.073V24.4139H67.3709V24.073L67.3748 24.071Z" fill="#FCFCFC"/>
<path d="M90.4062 17.5771C90.4062 13.5281 93.2444 10.5039 97.1888 10.5039C101.133 10.5039 103.999 13.5281 103.999 17.5771C103.999 21.6261 101.133 24.6755 97.1888 24.6755C93.2444 24.6755 90.4062 21.6513 90.4062 17.5771ZM100.817 17.5771C100.817 13.7916 99.2676 11.1607 97.1888 11.1607C95.1101 11.1607 93.6145 13.8167 93.6145 17.5771C93.6145 21.3375 95.114 24.0187 97.1888 24.0187C99.2637 24.0187 100.817 21.3355 100.817 17.5771Z" fill="#FCFCFC"/>
<path d="M31.8467 15.9343C31.8467 24.7234 24.7015 31.8467 15.9124 31.8467C7.12333 31.8467 0 24.7234 0 15.9343C0 7.14524 7.12333 0 15.9124 0C18.2796 0 20.5152 0.504112 22.5316 1.4685L21.6987 4.58085C19.5946 12.4713 19.9672 12.0987 12.0768 14.2028L6.3562 15.7371L6.44387 16.0658C13.7425 18.696 13.1288 18.1042 15.759 25.4029L16.1097 25.4905L17.6439 19.7481C19.7481 11.8795 19.3754 12.2521 27.244 10.148L30.4002 9.2932C31.3207 11.3096 31.8467 13.5672 31.8467 15.9343Z" fill="#FCFCFC"/>
</svg>
