<svg width="12" height="12" viewBox="0 0 12 12" fill="none" xmlns="http://www.w3.org/2000/svg">
<path d="M3.125 2.20833C3.125 1.54099 3.66599 1 4.33333 1C5.02149 1 5.63013 1.34046 6 1.86213C6.36987 1.34046 6.97851 1 7.66667 1C8.33401 1 8.875 1.54099 8.875 2.20833C8.875 2.69838 8.70235 3.14811 8.41455 3.5H9.4375C10.0243 3.5 10.5 3.9757 10.5 4.5625C10.5 5.1493 10.0243 5.625 9.4375 5.625H6.375V3.5H6.83333C7.5467 3.5 8.125 2.9217 8.125 2.20833C8.125 1.9552 7.9198 1.75 7.66667 1.75C6.9533 1.75 6.375 2.3283 6.375 3.04167V3.5H5.625V3.04167C5.625 2.3283 5.0467 1.75 4.33333 1.75C4.0802 1.75 3.875 1.9552 3.875 2.20833C3.875 2.9217 4.4533 3.5 5.16667 3.5H5.625V5.625H2.5625C1.9757 5.625 1.5 5.1493 1.5 4.5625C1.5 3.9757 1.9757 3.5 2.5625 3.5H3.58545C3.29765 3.14811 3.125 2.69838 3.125 2.20833Z" fill="#FCFCFC"/>
<path d="M6.375 6.375H10V9.125C10 9.88439 9.38439 10.5 8.625 10.5H6.375V6.375Z" fill="#FCFCFC"/>
<path d="M5.625 6.375H2V9.125C2 9.88439 2.61561 10.5 3.375 10.5H5.625V6.375Z" fill="#FCFCFC"/>
</svg>
