<svg width="12" height="12" viewBox="0 0 12 12" fill="none" xmlns="http://www.w3.org/2000/svg">
<path d="M6.00195 1C4.75931 1 3.75195 2.00736 3.75195 3.25C3.75195 4.49264 4.75931 5.5 6.00195 5.5C7.24459 5.5 8.25195 4.49264 8.25195 3.25C8.25195 2.00736 7.24459 1 6.00195 1Z" fill="#FCFCFC" fill-opacity="0.4"/>
<path d="M6.00265 6.25C4.14179 6.25 2.72041 7.36288 2.14217 8.92636C1.98896 9.34063 2.09311 9.74766 2.33759 10.039C2.5769 10.3242 2.94854 10.5 3.35107 10.5H8.65423C9.05676 10.5 9.4284 10.3242 9.66771 10.039C9.91219 9.74766 10.0163 9.34063 9.86313 8.92636C9.28488 7.36288 7.8635 6.25 6.00265 6.25Z" fill="#FCFCFC" fill-opacity="0.4"/>
</svg>
