<svg width="12" height="12" viewBox="0 0 12 12" fill="none" xmlns="http://www.w3.org/2000/svg">
<path fill-rule="evenodd" clip-rule="evenodd" d="M3.65851 1.14954C3.53995 0.992004 3.31966 0.953176 3.1544 1.06068C2.57394 1.43827 2.1745 1.9014 2.07356 2.47052C2.01627 2.79353 2.06105 3.11723 2.18647 3.43777C1.99706 3.35201 1.78831 3.28406 1.56399 3.23176C1.37162 3.18691 1.17744 3.29898 1.12003 3.48798C0.919221 4.14911 0.912878 4.75972 1.20345 5.26007C1.32551 5.47024 1.49066 5.64494 1.69128 5.78852C1.47459 5.80672 1.24908 5.85276 1.01724 5.92236C0.82725 5.97939 0.714545 6.17453 0.760085 6.36761C0.91874 7.04025 1.22027 7.57141 1.72244 7.85964C2.00688 8.02291 2.32685 8.09166 2.67167 8.08424C2.47004 8.19805 2.27206 8.34798 2.08198 8.53694C1.93776 8.68032 1.9341 8.91252 2.07374 9.06037C2.50175 9.51354 2.97126 9.80958 3.48552 9.86416C3.96955 9.91554 4.42554 9.74627 4.84437 9.42075C4.85612 9.48793 4.85838 9.55412 4.85107 9.61757C4.82696 9.82677 4.68977 10.0826 4.27405 10.2892C4.08859 10.3814 4.01298 10.6065 4.10517 10.7919C4.19736 10.9774 4.42243 11.053 4.60789 10.9608C5.20216 10.6654 5.53723 10.2147 5.59614 9.70341C5.71611 8.66204 4.71783 7.81831 3.73685 7.80277C3.72344 7.80255 3.71002 7.80248 3.69658 7.80254C3.75815 7.71719 3.78343 7.60672 3.75753 7.49692C3.62301 6.92662 3.38579 6.45803 3.01065 6.15296C3.07356 6.10658 3.12246 6.04031 3.14679 5.96021C3.33842 5.32932 3.35296 4.74442 3.10138 4.25745L3.1087 4.25281C3.68916 3.87523 4.0886 3.41209 4.18954 2.84297C4.29052 2.27362 4.07435 1.70211 3.65851 1.14954Z" fill="#956EFF"/>
<path fill-rule="evenodd" clip-rule="evenodd" d="M8.84574 1.06068C8.68048 0.953176 8.46019 0.992004 8.34163 1.14954C7.92579 1.70211 7.70962 2.27362 7.8106 2.84297C7.91154 3.41209 8.31098 3.87523 8.89144 4.25281L8.89876 4.25745C8.64718 4.74442 8.66172 5.32932 8.85335 5.96021C8.87768 6.04031 8.92658 6.10658 8.98949 6.15296C8.61435 6.45803 8.37713 6.92662 8.24261 7.49692C8.21671 7.60672 8.24199 7.71719 8.30356 7.80254C8.29012 7.80248 8.27669 7.80255 8.26329 7.80277C7.28231 7.81831 6.28402 8.66204 6.404 9.70341C6.4629 10.2147 6.79798 10.6654 7.39225 10.9608C7.57771 11.053 7.80278 10.9774 7.89497 10.7919C7.98716 10.6065 7.91155 10.3814 7.72609 10.2892C7.31037 10.0826 7.17317 9.82677 7.14907 9.61757C7.14176 9.55412 7.14402 9.48793 7.15577 9.42075C7.5746 9.74627 8.03059 9.91554 8.51462 9.86416C9.02888 9.80958 9.49839 9.51354 9.9264 9.06037C10.066 8.91252 10.0624 8.68032 9.91816 8.53694C9.72808 8.34798 9.5301 8.19805 9.32847 8.08424C9.67329 8.09166 9.99326 8.02291 10.2777 7.85964C10.7799 7.57141 11.0814 7.04025 11.2401 6.36761C11.2856 6.17453 11.1729 5.97939 10.9829 5.92236C10.7511 5.85276 10.5256 5.80672 10.3089 5.78852C10.5095 5.64494 10.6746 5.47024 10.7967 5.26007C11.0873 4.75972 11.0809 4.14911 10.8801 3.48798C10.8227 3.29898 10.6285 3.18691 10.4362 3.23176C10.2118 3.28406 10.0031 3.35201 9.81367 3.43777C9.93909 3.11723 9.98387 2.79353 9.92658 2.47052C9.82564 1.9014 9.4262 1.43827 8.84574 1.06068Z" fill="#956EFF"/>
</svg>
