<svg width="17" height="16" viewBox="0 0 17 16" fill="none" xmlns="http://www.w3.org/2000/svg">
<g opacity="0.56">
<path fill-rule="evenodd" clip-rule="evenodd" d="M3.16667 7.83333C3.53486 7.83333 3.83333 8.13181 3.83333 8.5V12C3.83333 12.3682 4.13181 12.6667 4.5 12.6667H12.5C12.8682 12.6667 13.1667 12.3682 13.1667 12V8.5C13.1667 8.13181 13.4651 7.83333 13.8333 7.83333C14.2015 7.83333 14.5 8.13181 14.5 8.5V12C14.5 13.1046 13.6046 14 12.5 14H4.5C3.39543 14 2.5 13.1046 2.5 12V8.5C2.5 8.13181 2.79848 7.83333 3.16667 7.83333Z" fill="#FCFCFC"/>
<path fill-rule="evenodd" clip-rule="evenodd" d="M8.49999 2C8.6768 2 8.84637 2.07024 8.9714 2.19526L11.9714 5.19526C12.2318 5.45561 12.2318 5.87772 11.9714 6.13807C11.7111 6.39842 11.2889 6.39842 11.0286 6.13807L9.16666 4.27614V10.1667C9.16666 10.5349 8.86818 10.8333 8.49999 10.8333C8.1318 10.8333 7.83333 10.5349 7.83333 10.1667V4.27615L5.97141 6.13807C5.71106 6.39842 5.28895 6.39842 5.0286 6.13807C4.76825 5.87772 4.76825 5.45561 5.02859 5.19526L8.02859 2.19526C8.15361 2.07024 8.32318 2 8.49999 2Z" fill="#FCFCFC"/>
</g>
</svg>
