<svg width="12" height="16" viewBox="0 0 12 16" fill="none" xmlns="http://www.w3.org/2000/svg">
<g clip-path="url(#clip0_13528_59837)">
<path d="M5.84357 3.19615C5.92364 3.09607 6.07585 3.09607 6.15592 3.19615L8.40646 6.00933C8.51122 6.14028 8.41799 6.33427 8.25029 6.33427L3.7492 6.33427C3.5815 6.33427 3.48827 6.14028 3.59303 6.00933L5.84357 3.19615Z" fill="#C9CDD4"/>
</g>
<g clip-path="url(#clip1_13528_59837)">
<path d="M6.15592 12.8041C6.07585 12.9042 5.92364 12.9042 5.84357 12.8041L3.59303 9.99095C3.48827 9.86 3.5815 9.66602 3.7492 9.66602L8.25029 9.66602C8.41799 9.66602 8.51122 9.86 8.40646 9.99096L6.15592 12.8041Z" fill="#C9CDD4"/>
</g>
<defs>
<clipPath id="clip0_13528_59837">
<rect width="12" height="8" fill="white"/>
</clipPath>
<clipPath id="clip1_13528_59837">
<rect width="12" height="8" fill="white" transform="translate(0 8)"/>
</clipPath>
</defs>
</svg>
