<svg width="16" height="16" viewBox="0 0 16 16" fill="none" xmlns="http://www.w3.org/2000/svg">
<g id="circle-info, info circle, tooltip, information">
<path id="vector" fill-rule="evenodd" clip-rule="evenodd" d="M8.00016 1.33398C4.31826 1.33398 1.3335 4.31875 1.3335 8.00065C1.3335 11.6825 4.31826 14.6673 8.00016 14.6673C11.6821 14.6673 14.6668 11.6825 14.6668 8.00065C14.6668 4.31875 11.6821 1.33398 8.00016 1.33398ZM6.66683 7.33398C6.66683 6.96579 6.96531 6.66732 7.3335 6.66732H8.00016C8.36835 6.66732 8.66683 6.96579 8.66683 7.33398V10.6673C8.66683 11.0355 8.36835 11.334 8.00016 11.334C7.63197 11.334 7.3335 11.0355 7.3335 10.6673V8.00065C6.96531 8.00065 6.66683 7.70217 6.66683 7.33398ZM8.00016 4.66732C7.63197 4.66732 7.3335 4.96579 7.3335 5.33398C7.3335 5.70217 7.63197 6.00065 8.00016 6.00065C8.36835 6.00065 8.66683 5.70217 8.66683 5.33398C8.66683 4.96579 8.36835 4.66732 8.00016 4.66732Z" fill="#FCFCFC"/>
</g>
</svg>
