<svg width="84" height="84" fill="none" xmlns="http://www.w3.org/2000/svg" viewBox="0 0 84 84"><path d="M66.547 42.746s-2.659 35.081-42.65 22.952c0 0-4.361 9.89-8.51 8.21-4.147-1.679-6.806-5.598 6.383-10.356 0 0-3.085-7.278 1.169-7.558 4.255-.28 3.085 2.893 1.17 6.718 0 0 15.529-4.945 4.786-14.462 0 0-3.616-2.612-5.317-9.05L42.96 25.948l22.093 6.042 1.493 10.756ZM45.603 24.272c6.285 0 11.38-4.762 11.38-10.636S51.889 3 45.603 3c-6.286 0-11.381 4.762-11.381 10.636s5.095 10.636 11.38 10.636Z" fill="#fff" stroke="color(display-p3 .1059 .3294 .9882)" stroke-width="1.353" stroke-miterlimit="10" stroke-linecap="round" stroke-linejoin="round"/><path d="M23.877 37.092a22.13 22.13 0 0 1-1.142-7.035c0-12.419 10.239-22.486 22.867-22.486 12.63 0 22.868 10.067 22.868 22.486 0 2.523-.423 4.95-1.202 7.215" fill="#fff"/><path d="M23.877 37.092a22.13 22.13 0 0 1-1.142-7.035c0-12.419 10.239-22.486 22.867-22.486 12.63 0 22.868 10.067 22.868 22.486 0 2.523-.423 4.95-1.202 7.215" stroke="color(display-p3 .1059 .3294 .9882)" stroke-width="1.353" stroke-miterlimit="10" stroke-linecap="round" stroke-linejoin="round"/><path d="M54.058 11.49c-3.418 0-6.467 1.687-8.456 4.322-1.988-2.635-5.037-4.322-8.455-4.322-5.991 0-10.85 5.18-10.85 11.57 0 6.39 4.858 11.569 10.85 11.569 3.418 0 6.467-1.687 8.455-4.322 1.989 2.635 5.038 4.322 8.456 4.322 5.991 0 10.849-5.18 10.849-11.57 0-6.39-4.857-11.569-10.849-11.569Z" stroke="color(display-p3 .1059 .3294 .9882)" stroke-width="1.353" stroke-miterlimit="10" stroke-linecap="round" stroke-linejoin="round"/><path d="M67.255 40.95c-.671 0-1.294-.277-2.017-.598-.267-.12-.544-.243-.837-.357-4.459-1.742-10.608-2.59-18.797-2.59-8.718 0-14.342.776-18.806 2.593-1.21.492-2.31.742-3.273.742-1.147 0-2.041-.348-2.734-1.06-.679-.7-1.014-1.584-.942-2.49.075-.938.573-1.797 1.401-2.416 5.027-3.757 14.132-6 24.354-6s19.326 2.243 24.353 6c.83.62 1.328 1.478 1.401 2.416.073.906-.262 1.79-.942 2.49-.784.807-1.937 1.27-3.16 1.27Z" fill="#fff"/><path d="M45.603 29.45c4.976 0 9.821.55 14.012 1.587 4.122 1.021 7.557 2.5 9.936 4.278.671.502 1.073 1.187 1.133 1.93.056.708-.211 1.406-.753 1.964-.658.677-1.633 1.066-2.676 1.066-.527 0-1.09-.25-1.742-.541a19.309 19.309 0 0 0-.866-.369c-4.539-1.774-10.768-2.636-19.044-2.636-8.81 0-14.51.791-19.06 2.643-1.129.46-2.144.693-3.018.693-.955 0-1.69-.28-2.249-.856-.542-.558-.81-1.256-.753-1.965.059-.742.461-1.426 1.133-1.929 2.379-1.777 5.814-3.257 9.936-4.278 4.189-1.038 9.035-1.587 14.01-1.587Zm0-1.352c-10.363 0-19.619 2.293-24.759 6.133-2.012 1.504-2.254 4.154-.54 5.92.882.907 2.008 1.265 3.22 1.265 1.143 0 2.363-.318 3.527-.791 4.184-1.704 9.553-2.543 18.55-2.543 8.998 0 14.67 1.026 18.551 2.543 1.082.423 2.004 1.002 3.102 1.002 1.353 0 2.698-.5 3.645-1.476 1.715-1.765 1.473-4.415-.54-5.919-5.138-3.841-14.393-6.134-24.756-6.134Z" fill="color(display-p3 .1059 .3294 .9882)"/><path d="M65.333 36.495s-9.998-3.639-19.464-3.639h-.532c-9.467 0-19.464 3.639-19.464 3.639" stroke="color(display-p3 .1059 .3294 .9882)" stroke-width="1.353" stroke-miterlimit="10" stroke-linecap="round" stroke-linejoin="round"/><path d="M37.307 27.258c2.302 0 4.17-1.817 4.17-4.059 0-2.241-1.867-4.058-4.17-4.058s-4.17 1.817-4.17 4.058c0 2.242 1.867 4.06 4.17 4.06Zm16.591 0c2.303 0 4.17-1.817 4.17-4.059 0-2.241-1.867-4.058-4.17-4.058-2.302 0-4.17 1.817-4.17 4.058 0 2.242 1.868 4.06 4.17 4.06Z" fill="color(display-p3 .1059 .3294 .9882)"/><g filter="url(#a)"><path d="M26.618 42.153a2 2 0 0 1 .48-3.072l6.319-3.663a2 2 0 0 1 2.51.415l10.878 12.466a2 2 0 0 0 2.852.165l11.628-10.578a2 2 0 0 1 2.543-.123l6.001 4.487a2 2 0 0 1 .078 3.143L56.644 56.365a2 2 0 0 0-.232 2.857l12.37 14.167a2 2 0 0 1-.502 3.044l-4.687 2.724a2 2 0 0 1-2.492-.393L49.749 66.126a2 2 0 0 0-2.88-.098L32.495 79.983a2 2 0 0 1-2.335.33l-6.14-3.28a2 2 0 0 1-.486-3.164l15.21-15.502a2 2 0 0 0 .055-2.743L26.618 42.153Z" fill="#fff"/></g><path d="M26.618 42.153a2 2 0 0 1 .48-3.072l6.319-3.663a2 2 0 0 1 2.51.415l10.878 12.466a2 2 0 0 0 2.852.165l11.628-10.578a2 2 0 0 1 2.543-.123l6.001 4.487a2 2 0 0 1 .078 3.143L56.644 56.365a2 2 0 0 0-.232 2.857l12.37 14.167a2 2 0 0 1-.502 3.044l-4.687 2.724a2 2 0 0 1-2.492-.393L49.749 66.126a2 2 0 0 0-2.88-.098L32.495 79.983a2 2 0 0 1-2.335.33l-6.14-3.28a2 2 0 0 1-.486-3.164l15.21-15.502a2 2 0 0 0 .055-2.743L26.618 42.153Z" stroke="color(display-p3 1 .4108 .4108)" stroke-width="3" stroke-miterlimit="10" stroke-linecap="round" stroke-linejoin="round"/><path d="M29.853 47.691s12.019 2.333 12.231 4.199c.213 1.866-5.636 10.73-12.23-4.199Zm33.938 2.694s-6.922 1.505-8.73 3.37c-1.808 1.867 2.677 11.173 8.73-3.37Z" fill="#fff" stroke="color(display-p3 .1059 .3294 .9882)" stroke-width="1.353" stroke-miterlimit="10" stroke-linecap="round" stroke-linejoin="round"/><path d="M38.634 25.001a1.217 1.217 0 1 0 0-2.434 1.217 1.217 0 0 0 0 2.434Zm16.592 0a1.217 1.217 0 1 0 0-2.435 1.217 1.217 0 0 0 0 2.435Z" fill="#fff"/><defs><filter id="a" x="21.462" y="33.648" width="50.67" height="52.4" filterUnits="userSpaceOnUse" color-interpolation-filters="sRGB"><feFlood flood-opacity="0" result="BackgroundImageFix"/><feBlend in="SourceGraphic" in2="BackgroundImageFix" result="shape"/><feColorMatrix in="SourceAlpha" values="0 0 0 0 0 0 0 0 0 0 0 0 0 0 0 0 0 0 127 0" result="hardAlpha"/><feOffset dy="4"/><feGaussianBlur stdDeviation="2"/><feComposite in2="hardAlpha" operator="arithmetic" k2="-1" k3="1"/><feColorMatrix values="0 0 0 0 1 0 0 0 0 0.346578 0 0 0 0 0.346578 0 0 0 1 0"/><feBlend in2="shape" result="effect1_innerShadow_1469_6307"/></filter></defs></svg>