<svg width="12" height="12" fill="none" xmlns="http://www.w3.org/2000/svg" viewBox="0 0 12 12"><g filter="url(#a)" clip-path="url(#b)"><path d="M11.52 3.073H9.306c.204-.31.324-.679.324-1.073 0-1.102-.929-2-2.07-2A2.1 2.1 0 0 0 6 .687 2.098 2.098 0 0 0 4.44 0C3.298 0 2.37.897 2.37 2c0 .394.119.762.324 1.073H.48a.472.472 0 0 0-.48.463v2.899c0 .064.054.116.12.116h.6v4.986c0 .256.214.463.48.463h9.6c.265 0 .48-.207.48-.463V6.55h.6c.066 0 .12-.052.12-.115V3.536a.472.472 0 0 0-.48-.463ZM6.51 2c0-.56.471-1.014 1.05-1.014.579 0 1.05.455 1.05 1.014 0 .56-.471 1.014-1.05 1.014H6.51V2ZM4.44.986c.579 0 1.05.455 1.05 1.014v1.014H4.44c-.579 0-1.05-.454-1.05-1.014S3.861.986 4.44.986ZM1.02 5.565V4.058h4.47v1.507H1.02Zm.72.986h3.75v4.463H1.74V6.551Zm8.52 4.463H6.51V6.551h3.75v4.463Zm.72-5.449H6.51V4.058h4.47v1.507Z" fill="#fff"/></g><defs><clipPath id="b"><path fill="#fff" d="M0 0h12v12H0z"/></clipPath><filter id="a" x="-2" y="-2" width="16" height="16" filterUnits="userSpaceOnUse" color-interpolation-filters="sRGB"><feFlood flood-opacity="0" result="BackgroundImageFix"/><feColorMatrix in="SourceAlpha" values="0 0 0 0 0 0 0 0 0 0 0 0 0 0 0 0 0 0 127 0" result="hardAlpha"/><feOffset/><feGaussianBlur stdDeviation="1"/><feComposite in2="hardAlpha" operator="out"/><feColorMatrix values="0 0 0 0 1 0 0 0 0 0.916667 0 0 0 0 0 0 0 0 1 0"/><feBlend in2="BackgroundImageFix" result="effect1_dropShadow_1_2809"/><feBlend in="SourceGraphic" in2="effect1_dropShadow_1_2809" result="shape"/></filter></defs></svg>