<svg width="22" height="22" fill="none" xmlns="http://www.w3.org/2000/svg" viewBox="0 0 22 22"><path d="M1.83 4.608h18.43c.955 0 1.728-.78 1.728-1.742 0-.961-.773-1.741-1.728-1.741H1.83c-.955 0-1.728.78-1.728 1.741 0 .962.773 1.742 1.727 1.742ZM20.26 9.25H10c-.954 0-2 .78-2 1.742s1.046 1.741 2 1.741h10.26c.955 0 1.728-.78 1.728-1.741 0-.962-.773-1.742-1.728-1.742Zm0 8.267H10c-.954 0-2 .78-2 1.742S9.046 21 10 21h10.26c.955 0 1.728-.78 1.728-1.741 0-.962-.773-1.742-1.728-1.742Z" fill="#fff"/><circle cx="2" cy="11" r="2" fill="#fff"/><circle cx="2" cy="19" r="2" fill="#fff"/></svg>