<svg width="12" height="13" viewBox="0 0 12 13" fill="none" xmlns="http://www.w3.org/2000/svg">
<g clip-path="url(#clip0_15255_37658)">
<path d="M11.52 3.56299H9.30599C9.50999 3.25249 9.62999 2.88424 9.62999 2.49049C9.62999 1.388 8.70149 0.490246 7.55999 0.490246C6.93899 0.490246 6.37949 0.757246 5.99999 1.17725C5.8025 0.95997 5.56161 0.786557 5.29289 0.668218C5.02417 0.549879 4.73361 0.489249 4.43999 0.490246C3.2985 0.490246 2.37 1.38725 2.37 2.49049C2.37 2.88424 2.4885 3.25249 2.694 3.56299H0.479999C0.418046 3.5619 0.356484 3.57302 0.29883 3.59573C0.241176 3.61843 0.188559 3.65227 0.143985 3.69531C0.0994111 3.73835 0.0637531 3.78975 0.0390478 3.84658C0.0143425 3.9034 0.00107398 3.96454 0 4.02649L0 6.92524C0 6.98899 0.0539999 7.04074 0.12 7.04074H0.719999V12.0267C0.719999 12.2832 0.934499 12.4902 1.2 12.4902H10.8C11.0655 12.4902 11.28 12.2832 11.28 12.0267V7.04074H11.88C11.946 7.04074 12 6.98824 12 6.92524V4.02649C11.9989 3.96454 11.9856 3.9034 11.9609 3.84658C11.9362 3.78975 11.9006 3.73835 11.856 3.69531C11.8114 3.65227 11.7588 3.61843 11.7012 3.59573C11.6435 3.57302 11.5819 3.5619 11.52 3.56299ZM6.50999 2.49049C6.50999 1.93099 6.98099 1.47575 7.55999 1.47575C8.13899 1.47575 8.60999 1.93099 8.60999 2.49049C8.60999 3.04999 8.13899 3.50449 7.55999 3.50449H6.50999V2.49049ZM4.43999 1.47575C5.01899 1.47575 5.48999 1.93099 5.48999 2.49049V3.50449H4.43999C3.861 3.50449 3.39 3.04999 3.39 2.49049C3.39 1.93099 3.861 1.47575 4.43999 1.47575ZM1.02 6.05524V4.54774H5.48999V6.05524H1.02ZM1.74 7.04074H5.48999V11.5047H1.74V7.04074ZM10.26 11.5047H6.50999V7.04074H10.26V11.5047ZM10.98 6.05524H6.50999V4.54774H10.98V6.05524Z" fill="white"/>
</g>
<defs>
<clipPath id="clip0_15255_37658">
<rect width="12" height="12" fill="white" transform="translate(0 0.490234)"/>
</clipPath>
</defs>
</svg>
