<svg width="18" height="19" viewBox="0 0 18 19" fill="none" xmlns="http://www.w3.org/2000/svg">
<path d="M12.5911 2.0543C12.5763 1.92334 12.4656 1.82435 12.3338 1.82422C12.202 1.82408 12.091 1.92285 12.0759 2.05377C12.0056 2.6633 11.8246 3.08144 11.541 3.36507C11.2574 3.64869 10.8392 3.8297 10.2297 3.9C10.0988 3.9151 10 4.02602 10.0002 4.15782C10.0003 4.28961 10.0993 4.40033 10.2302 4.41516C10.8295 4.48304 11.2571 4.66401 11.548 4.94958C11.8372 5.2336 12.0217 5.65116 12.0753 6.25457C12.0871 6.38844 12.1994 6.49104 12.3338 6.49088C12.4682 6.49073 12.5802 6.38789 12.5918 6.25398C12.6431 5.66077 12.8274 5.2338 13.1186 4.94265C13.4097 4.65149 13.8367 4.4672 14.4299 4.41585C14.5638 4.40425 14.6667 4.29225 14.6668 4.15784C14.667 4.02344 14.5644 3.9112 14.4305 3.89931C13.8271 3.84571 13.4095 3.66127 13.1255 3.37202C12.84 3.08119 12.659 2.65351 12.5911 2.0543Z" fill="#FCFCFC"/>
<path d="M7.99593 3.74919C7.95778 3.41244 7.67307 3.1579 7.33418 3.15755C6.99528 3.15721 6.71005 3.41117 6.67122 3.74783C6.49045 5.31518 6.02499 6.39042 5.29567 7.11973C4.56636 7.84904 3.49112 8.3145 1.92378 8.49528C1.58711 8.53411 1.33315 8.81934 1.3335 9.15823C1.33384 9.49713 1.58839 9.78184 1.92513 9.81998C3.46597 9.99451 4.5657 10.4599 5.31355 11.1942C6.05733 11.9245 6.53161 12.9983 6.66944 14.5499C6.70003 14.8941 6.98863 15.1579 7.33425 15.1576C7.67986 15.1572 7.96787 14.8927 7.99768 14.5484C8.12972 13.023 8.60362 11.9251 9.35231 11.1764C10.101 10.4277 11.1989 9.95378 12.7243 9.82173C13.0687 9.79193 13.3331 9.50392 13.3335 9.1583C13.3339 8.81269 13.0701 8.52408 12.7258 8.4935C11.1742 8.35567 10.1005 7.88139 9.37014 7.1376C8.63581 6.38975 8.17046 5.29002 7.99593 3.74919Z" fill="#FCFCFC"/>
</svg>
