<svg width="16" height="16" fill="none" xmlns="http://www.w3.org/2000/svg" viewBox="0 0 16 16"><path fill-rule="evenodd" clip-rule="evenodd" d="M7.999 1.334a6.667 6.667 0 1 0 0 13.333 6.667 6.667 0 0 0 0-13.333Zm0 4.667a.666.666 0 0 0-.586.347.667.667 0 0 1-1.17-.64A2 2 0 0 1 8 4.668c1.01 0 1.711.67 1.91 1.459a1.878 1.878 0 0 1-1.016 2.172.412.412 0 0 0-.228.368.667.667 0 0 1-1.333 0c0-.66.374-1.265.965-1.56.303-.152.38-.413.32-.653-.062-.244-.266-.453-.618-.453Zm0 5.333a.667.667 0 1 0 0-1.333.667.667 0 0 0 0 1.333Z" fill="#FCFCFC" opacity=".32"/></svg>