<svg width="18" height="18" fill="none" xmlns="http://www.w3.org/2000/svg" viewBox="0 0 18 18"><g filter="url(#a)" fill="#FCFCFC" clip-path="url(#b)"><path d="M12.591 1.564a.26.26 0 0 0-.515 0c-.07.61-.251 1.027-.535 1.31-.284.284-.702.465-1.311.536a.26.26 0 0 0 0 .515c.6.068 1.027.249 1.318.534.29.284.474.702.527 1.305a.26.26 0 0 0 .517 0c.051-.593.235-1.02.527-1.312.29-.29.718-.475 1.31-.526a.26.26 0 0 0 .002-.517c-.604-.054-1.021-.238-1.305-.527-.286-.291-.467-.719-.535-1.318ZM7.996 3.259a.667.667 0 0 0-1.325-.001C6.491 4.825 6.025 5.9 5.296 6.63c-.73.729-1.805 1.194-3.372 1.375a.667.667 0 0 0 .001 1.325c1.541.174 2.64.64 3.389 1.374.743.73 1.218 1.804 1.355 3.356a.667.667 0 0 0 1.329-.002c.132-1.525.606-2.623 1.354-3.372.749-.749 1.847-1.222 3.372-1.354a.667.667 0 0 0 .002-1.329c-1.552-.138-2.626-.612-3.356-1.356C8.636 5.9 8.17 4.8 7.996 3.26Z"/></g><defs><clipPath id="b"><path fill="#fff" transform="matrix(-1 0 0 1 18 0)" d="M0 0h18v18H0z"/></clipPath><filter id="a" x="-2.667" y="-2.666" width="21.333" height="21.334" filterUnits="userSpaceOnUse" color-interpolation-filters="sRGB"><feFlood flood-opacity="0" result="BackgroundImageFix"/><feColorMatrix in="SourceAlpha" values="0 0 0 0 0 0 0 0 0 0 0 0 0 0 0 0 0 0 127 0" result="hardAlpha"/><feOffset/><feGaussianBlur stdDeviation="2"/><feComposite in2="hardAlpha" operator="out"/><feColorMatrix values="0 0 0 0 1 0 0 0 0 0.916667 0 0 0 0 0 0 0 0 1 0"/><feBlend in2="BackgroundImageFix" result="effect1_dropShadow_1_2807"/><feBlend in="SourceGraphic" in2="effect1_dropShadow_1_2807" result="shape"/></filter></defs></svg>