<svg width="84" height="84" fill="none" xmlns="http://www.w3.org/2000/svg" viewBox="0 0 84 84"><g filter="url(#a)"><path d="m11.88 41.215 41.185 24.174L73.57 43.185 81 48.199 60.049 76.133l-9.58 1.88-44.23-28.561 5.64-8.237Z" fill="#fff"/></g><path d="m11.88 41.215 41.185 24.174L73.57 43.185 81 48.199 60.049 76.133l-9.58 1.88-44.23-28.561 5.64-8.237Z" stroke="color(display-p3 0 1 .88)" stroke-width="3" stroke-miterlimit="10" stroke-linecap="round" stroke-linejoin="round"/><path d="M53.938 10.893S61.93-.15 74.196 7.998c12.267 8.147 3.559 30.451-6.816 40.34" fill="#fff"/><path d="M53.938 10.893S61.93-.15 74.196 7.998c12.267 8.147 3.559 30.451-6.816 40.34" stroke="color(display-p3 .1059 .3294 .9882)" stroke-width="1.343" stroke-miterlimit="10" stroke-linecap="round" stroke-linejoin="round"/><path d="M71.906 6.78S76.87 12 74.1 25.981" stroke="color(display-p3 .1059 .3294 .9882)" stroke-width="1.343" stroke-miterlimit="10" stroke-linecap="round" stroke-linejoin="round"/><path d="M45.8 12.86s6.348-2.925 12.638-1.46c6.536 1.522 15.937 5.283 15.758 18.534-.162 11.999-10.923 32.411-32.322 29.367-19.662-2.797-24.89-20.235-24.89-20.235s-7.342 1.97-9.85 3.94C4.629 44.976-5.4 30.65 19.312 36.11c0 0 3.224-11.908 6-2.506 0 0-4.298 2.507-4.746 4.297 0 0 6.088 8.237 12.893 5.73 3.026-1.114 3.91-3.416 3.957-5.629" fill="#fff"/><path d="M45.8 12.86s6.348-2.925 12.638-1.46c6.536 1.522 15.937 5.283 15.758 18.534-.162 11.999-10.923 32.411-32.322 29.367-19.662-2.797-24.89-20.235-24.89-20.235s-7.342 1.97-9.85 3.94C4.629 44.976-5.4 30.65 19.312 36.11c0 0 3.224-11.908 6-2.506 0 0-4.298 2.507-4.746 4.297 0 0 6.088 8.237 12.893 5.73 3.026-1.114 3.91-3.416 3.957-5.629" stroke="color(display-p3 .1059 .3294 .9882)" stroke-width="1.343" stroke-miterlimit="10" stroke-linecap="round" stroke-linejoin="round"/><path d="M63.323 31.957s8.323-9.915.958-15.875c-4.023-3.255-7.898-1.51-11.02 1.74 0 0-1.366-4.904-6.025-5.221-5.022-.342-9.27 8.963-6.946 15.364 0 0 10.236 8.21 23.033 3.992Z" fill="#fff" stroke="color(display-p3 .1059 .3294 .9882)" stroke-width="1.343" stroke-miterlimit="10" stroke-linecap="round" stroke-linejoin="round"/><path d="M72.6 32.114a3.308 3.308 0 0 0-3.66-1.174c-3.008.963-8.963 2.228-16.694.669-6.497-1.311-10.977-3.01-13.618-4.223a3.684 3.684 0 0 0-4.953 4.73c1.325 3.26 5.318 9.782 16.271 10.92 12.057 1.25 19.13-3.559 22.284-6.548a3.305 3.305 0 0 0 .37-4.373Z" stroke="color(display-p3 .1059 .3294 .9882)" stroke-width="1.343" stroke-miterlimit="10" stroke-linecap="round" stroke-linejoin="round"/><path d="M66.908 35.918s-8.1 3.433-17.086 1.76c-8.985-1.672-12.62-5.911-12.62-5.911m26.121.19s8.324-9.915.958-15.875c-4.022-3.255-7.898-1.51-11.02 1.74 0 0-1.366-4.904-6.025-5.221-5.022-.342-9.27 8.963-6.946 15.364" stroke="color(display-p3 .1059 .3294 .9882)" stroke-width="1.343" stroke-miterlimit="10" stroke-linecap="round" stroke-linejoin="round"/><path d="M61.368 25.48c.31-2.129-.707-4.04-2.273-4.268-1.566-.228-3.087 1.313-3.397 3.441-.31 2.128.707 4.039 2.273 4.267 1.566.229 3.087-1.312 3.397-3.44Zm-11.605-1.692c.31-2.129-.707-4.04-2.273-4.268-1.566-.228-3.087 1.312-3.397 3.44-.31 2.129.707 4.04 2.273 4.268 1.566.228 3.087-1.312 3.397-3.44Z" fill="color(display-p3 .1059 .3294 .9882)"/><path d="M72.6 32.114a3.308 3.308 0 0 0-3.66-1.175c-3.008.963-8.963 2.228-16.695.669-6.496-1.311-10.977-3.01-13.617-4.223a3.684 3.684 0 0 0-4.953 4.73c1.325 3.26 5.318 9.782 16.271 10.92 12.057 1.25 19.13-3.559 22.284-6.548a3.304 3.304 0 0 0 .37-4.373Z" fill="#fff" stroke="color(display-p3 .1059 .3294 .9882)" stroke-width="1.343" stroke-miterlimit="10" stroke-linecap="round" stroke-linejoin="round"/><path d="M66.908 35.918s-8.1 3.433-17.087 1.76c-8.984-1.672-12.62-5.911-12.62-5.911" stroke="color(display-p3 .1059 .3294 .9882)" stroke-width="1.343" stroke-miterlimit="10" stroke-linecap="round" stroke-linejoin="round"/><path d="M61.368 25.48c.31-2.129-.708-4.04-2.273-4.268-1.566-.228-3.087 1.313-3.397 3.441-.31 2.128.707 4.039 2.273 4.267 1.565.229 3.086-1.312 3.397-3.44Zm-11.605-1.693c.31-2.129-.707-4.04-2.273-4.268-1.566-.228-3.087 1.312-3.397 3.44-.31 2.129.707 4.04 2.273 4.268 1.566.228 3.087-1.312 3.397-3.44Z" fill="color(display-p3 .1059 .3294 .9882)"/><path d="M57.935 26.065c.075-.514-.201-.98-.617-1.04-.416-.06-.814.306-.889.82-.075.514.202.98.618 1.04.416.06.813-.307.888-.82ZM46.594 24.41c.075-.513-.201-.979-.617-1.04-.416-.06-.814.307-.889.82-.075.515.202.98.618 1.04.416.062.814-.306.888-.82Zm14.709 22.446 2.74-2.038 4.512-4.588 4.297-2.596 2.328 1.164.18 3.492-1.488 2.162 1.692 2.424-.503 2.468-3.462 5.122-3.945 1.188-8.232-1.725 1.88-7.073Z" fill="#fff"/><path d="M73.928 44.176c1.203-1.565 1.926-3.354 1.242-5.122-1.897-4.891-10.192 4.558-11.38 5.971-.985 1.171-5.54 3.074-7.07 3.69" stroke="color(display-p3 .1059 .3294 .9882)" stroke-width="1.343" stroke-miterlimit="10" stroke-linecap="round" stroke-linejoin="round"/><path d="M67.501 52.01s-5.222-1.392-1.737-6.146c3.484-4.754 8.819-2.062 9.757.605.939 2.667-5.034 8.946-6.75 9.211-1.717.265-10.736-2.387-10.736-2.387" stroke="color(display-p3 .1059 .3294 .9882)" stroke-width="1.343" stroke-miterlimit="10" stroke-linecap="round" stroke-linejoin="round"/><path d="M35.695 41.215s-3.044-3.671-3.67-7.521c-1.04-6.378-8.065 2.864-3.85 6.447 3.58 3.044 5.998 3.044 5.998 3.044" fill="#fff"/><path d="M35.695 41.215s-3.044-3.671-3.67-7.521c-1.04-6.378-8.065 2.864-3.85 6.447 3.58 3.044 5.998 3.044 5.998 3.044" stroke="color(display-p3 .1059 .3294 .9882)" stroke-width="1.343" stroke-miterlimit="10" stroke-linecap="round" stroke-linejoin="round"/><defs><filter id="a" x="4.739" y="39.715" width="77.761" height="43.799" filterUnits="userSpaceOnUse" color-interpolation-filters="sRGB"><feFlood flood-opacity="0" result="BackgroundImageFix"/><feBlend in="SourceGraphic" in2="BackgroundImageFix" result="shape"/><feColorMatrix in="SourceAlpha" values="0 0 0 0 0 0 0 0 0 0 0 0 0 0 0 0 0 0 127 0" result="hardAlpha"/><feOffset dy="4"/><feGaussianBlur stdDeviation="2"/><feComposite in2="hardAlpha" operator="arithmetic" k2="-1" k3="1"/><feColorMatrix values="0 0 0 0 0.176471 0 0 0 0 0.956863 0 0 0 0 0.866667 0 0 0 1 0"/><feBlend in2="shape" result="effect1_innerShadow_1469_6266"/></filter></defs></svg>