<svg width="16" height="17" fill="none" xmlns="http://www.w3.org/2000/svg" viewBox="0 0 16 17"><path d="M0 8.5a8 8 0 1 1 16 0 8 8 0 1 1-16 0Z" fill="#4CA3FF"/><path fill-rule="evenodd" clip-rule="evenodd" d="M10.326 7.713c.404.486.646 1.1.646 1.769a2.78 2.78 0 0 1-.663 1.79l-.036.042-.01-.053a2.46 2.46 0 0 0-.028-.138c-.208-.874-.885-1.623-1.999-2.23-.752-.41-1.183-.9-1.296-1.46a2.017 2.017 0 0 1 .087-1.036c.104-.31.26-.571.393-.728l.433-.508a.195.195 0 0 1 .295 0l2.179 2.552Zm.686-.507-2.905-3.4a.143.143 0 0 0-.214 0l-2.904 3.4-.01.011a3.592 3.592 0 0 0-.854 2.321c0 2.047 1.735 3.705 3.875 3.705 2.14 0 3.875-1.658 3.875-3.705a3.59 3.59 0 0 0-.854-2.32l-.01-.012Zm-5.328.496.26-.304.007.056c.006.044.014.089.023.134.168.845.768 1.549 1.772 2.094.873.476 1.38 1.022 1.527 1.622.061.25.072.496.045.712l-.001.013-.013.006A3.075 3.075 0 0 1 8 12.323c-1.642 0-2.972-1.272-2.972-2.842 0-.674.245-1.292.655-1.78v.001Z" fill="#fff"/></svg>