<svg width="17" height="16" viewBox="0 0 17 16" fill="none" xmlns="http://www.w3.org/2000/svg">
<g opacity="0.32">
<path fill-rule="evenodd" clip-rule="evenodd" d="M8.5026 1.33398C4.82071 1.33398 1.83594 4.31875 1.83594 8.00065C1.83594 11.6825 4.82071 14.6673 8.5026 14.6673C12.1845 14.6673 15.1693 11.6825 15.1693 8.00065C15.1693 4.31875 12.1845 1.33398 8.5026 1.33398ZM8.50261 6.00065C8.25106 6.00065 8.03103 6.13972 7.91692 6.34833C7.74024 6.67136 7.33515 6.78999 7.01212 6.61331C6.68909 6.43663 6.57046 6.03153 6.74714 5.7085C7.08569 5.08952 7.74436 4.66732 8.50261 4.66732C9.51244 4.66732 10.2139 5.33827 10.4136 6.12665C10.6143 6.91922 10.3093 7.84265 9.39704 8.29879C9.25745 8.36859 9.16928 8.51125 9.16928 8.66732C9.16928 9.03551 8.8708 9.33398 8.50261 9.33398C8.13442 9.33398 7.83594 9.03551 7.83594 8.66732C7.83594 8.00623 8.20945 7.40187 8.80075 7.10622C9.10391 6.95464 9.18179 6.69381 9.12106 6.45405C9.05926 6.2101 8.85482 6.00065 8.50261 6.00065ZM8.5026 11.334C8.87079 11.334 9.16927 11.0355 9.16927 10.6673C9.16927 10.2991 8.87079 10.0007 8.5026 10.0007C8.13441 10.0007 7.83594 10.2991 7.83594 10.6673C7.83594 11.0355 8.13441 11.334 8.5026 11.334Z" fill="#FF8800"/>
</g>
</svg>
